<svg width="500" height="140" viewBox="0 0 317 88" fill="none" xmlns="http://www.w3.org/2000/svg">
<g clip-path="url(#clip0_146_562)">
<path d="M302.615 69.0035C298.743 69.0035 295.725 68.0009 293.562 65.9957C291.434 63.9906 290.37 61.1867 290.37 57.5842C290.37 53.2 291.783 49.5465 294.609 46.6238C297.469 43.667 301.027 42.1886 305.283 42.1886C309.365 42.1886 312.434 43.4121 314.493 45.8591C316.551 48.2721 317.248 51.5177 316.586 55.596L316.272 57.5842L297.801 57.6862C298.01 61.0848 299.754 62.7841 303.033 62.7841C305.545 62.7841 307.324 61.7985 308.37 59.8273H316.01C315.138 62.5462 313.463 64.7552 310.987 66.4545C308.51 68.1538 305.719 69.0035 302.615 69.0035ZM304.812 48.357C303.452 48.357 302.213 48.7819 301.097 49.6315C300.016 50.4472 299.179 51.5517 298.586 52.9451H309.26C309.504 51.5517 309.225 50.4472 308.423 49.6315C307.62 48.7819 306.417 48.357 304.812 48.357Z" fill="#C8E870"/>
<path d="M285.078 69.0035H263.144L264.216 62.3534L278.16 48.8387H266.308L267.381 42.1886H289.315L288.243 48.8387L274.031 62.3534H286.151L285.078 69.0035Z" fill="#C8E870"/>
<path d="M258.263 38.6134C257.155 38.6134 256.225 38.2558 255.475 37.5408C254.76 36.79 254.402 35.8604 254.402 34.752C254.402 33.3577 254.938 32.1242 256.011 31.0516C257.084 29.979 258.335 29.4427 259.765 29.4427C260.873 29.4427 261.785 29.8181 262.5 30.5689C263.251 31.284 263.626 32.1957 263.626 33.304C263.626 34.6627 263.072 35.8961 261.964 37.0045C260.891 38.0771 259.658 38.6134 258.263 38.6134ZM249.414 69.0036L253.651 42.1887H261.642L257.405 69.0036H249.414Z" fill="#C8E870"/>
<path d="M225.563 69.0035H217.572L221.809 42.1886H229.317L229.424 45.0847C230.532 43.7618 231.677 42.8143 232.856 42.2423C234.072 41.6345 235.484 41.3306 237.093 41.3306C240.061 41.3306 242.438 42.421 244.226 44.602C246.014 46.7829 246.657 49.4108 246.157 52.4856L243.529 69.0035H235.538L237.844 54.4162C238.13 52.6286 237.898 51.1984 237.147 50.1258C236.396 49.0533 235.234 48.517 233.661 48.517C232.088 48.517 230.801 49.0354 229.799 50.0722C228.798 51.0733 228.155 52.5034 227.869 54.3626L225.563 69.0035Z" fill="#C8E870"/>
<path d="M207.656 42.1887H215.647L211.41 69.0036H203.902L203.795 66.1076C201.649 68.5031 199.111 69.7008 196.179 69.7008C193.212 69.7008 190.87 68.6103 189.154 66.4294C187.473 64.2484 186.883 61.6206 187.384 58.5458L190.012 42.1887H198.003L195.697 56.6151C195.411 58.4028 195.625 59.8329 196.34 60.9055C197.091 61.9781 198.181 62.5144 199.612 62.5144C202.829 62.5144 204.742 60.6195 205.35 56.8296L207.656 42.1887Z" fill="#C8E870"/>
<path d="M163.721 69.0035H155.73L162.112 29.2817H170.103L166.456 51.7884L176.431 42.1886H186.567L174.661 53.5045L181.472 69.0035H172.838L168.44 58.8139L164.793 62.2462L163.721 69.0035Z" fill="#C8E870"/>
<path d="M125.191 57.1228C125.191 52.7264 126.668 49.0278 129.623 46.0271C132.613 42.9914 136.272 41.4736 140.602 41.4736C144.45 41.4736 147.543 42.5727 149.879 44.7709C152.25 46.9343 153.436 49.7954 153.436 53.3544C153.436 57.7508 151.941 61.4669 148.952 64.5025C145.996 67.5032 142.354 69.0036 138.025 69.0036C134.176 69.0036 131.066 67.9219 128.696 65.7586C126.359 63.5604 125.191 60.6818 125.191 57.1228ZM133.025 56.4424C133.025 58.1521 133.506 59.5303 134.468 60.5771C135.43 61.6239 136.736 62.1473 138.385 62.1473C140.378 62.1473 142.079 61.3622 143.488 59.792C144.897 58.2219 145.601 56.3028 145.601 54.0348C145.601 52.3251 145.12 50.9469 144.158 49.9001C143.196 48.8533 141.89 48.3299 140.241 48.3299C138.248 48.3299 136.547 49.115 135.138 50.6852C133.729 52.2553 133.025 54.1744 133.025 56.4424Z" fill="#C8E870"/>
<path d="M99.6294 37.1474L100.863 29.3175H131.271L130.037 37.1474H119.043L114.002 69.0035H105.636L110.677 37.1474H99.6294Z" fill="#C8E870"/>
<rect x="0.554543" y="0.5" width="86.9528" height="86.9528" rx="43.4764" fill="#121212"/>
<rect x="0.554543" y="0.5" width="86.9528" height="86.9528" rx="43.4764" stroke="#C8E870"/>
<path fill-rule="evenodd" clip-rule="evenodd" d="M30.501 68.6886L49.1938 39.218H57.8665L39.2159 68.6886H30.501Z" fill="#C8E870"/>
<path d="M23.1333 19.6641H62.3105L65.2341 26.2739H26.057L23.1333 19.6641Z" fill="#C8E870"/>
<path d="M14.7132 29.2623H70.1782L73.6544 35.8722H18.1894L14.7132 29.2623Z" fill="#C8E870"/>
</g>
<defs>
<clipPath id="clip0_146_562">
<rect width="517" height="334" fill="white"/>
</clipPath>
</defs>
</svg>
