<svg width="40" height="41" viewBox="0 0 40 41" fill="none" xmlns="http://www.w3.org/2000/svg">
<rect y="0.5" width="40" height="40" rx="20" fill="#F2F4F7"/>
<path fill-rule="evenodd" clip-rule="evenodd" d="M24 11.7427H16C13.2386 11.7427 11 13.9813 11 16.7427V24.7427C11 27.5041 13.2386 29.7427 16 29.7427H24C26.7614 29.7427 29 27.5041 29 24.7427V16.7427C29 13.9813 26.7614 11.7427 24 11.7427ZM27.25 24.7427C27.2445 26.5353 25.7926 27.9872 24 27.9927H16C14.2074 27.9872 12.7555 26.5353 12.75 24.7427V16.7427C12.7555 14.95 14.2074 13.4982 16 13.4927H24C25.7926 13.4982 27.2445 14.95 27.25 16.7427V24.7427ZM24.75 16.9927C25.3023 16.9927 25.75 16.545 25.75 15.9927C25.75 15.4404 25.3023 14.9927 24.75 14.9927C24.1977 14.9927 23.75 15.4404 23.75 15.9927C23.75 16.545 24.1977 16.9927 24.75 16.9927ZM20 16.2427C17.5147 16.2427 15.5 18.2574 15.5 20.7427C15.5 23.228 17.5147 25.2427 20 25.2427C22.4853 25.2427 24.5 23.228 24.5 20.7427C24.5027 19.5484 24.0294 18.4022 23.1849 17.5578C22.3404 16.7133 21.1943 16.24 20 16.2427ZM17.25 20.7427C17.25 22.2615 18.4812 23.4927 20 23.4927C21.5188 23.4927 22.75 22.2615 22.75 20.7427C22.75 19.2239 21.5188 17.9927 20 17.9927C18.4812 17.9927 17.25 19.2239 17.25 20.7427Z" fill="black"/>
</svg>
