<svg width="40" height="41" viewBox="0 0 40 41" fill="none" xmlns="http://www.w3.org/2000/svg">
<rect y="0.5" width="40" height="40" rx="20" fill="#F2F4F7"/>
<path fill-rule="evenodd" clip-rule="evenodd" d="M12.5 11.7427C11.6716 11.7427 11 12.4142 11 13.2427V28.2427C11 29.0711 11.6716 29.7427 12.5 29.7427H27.5C28.3284 29.7427 29 29.0711 29 28.2427V13.2427C29 12.4142 28.3284 11.7427 27.5 11.7427H12.5ZM16.5208 15.7454C16.5264 16.7016 15.8106 17.2909 14.9612 17.2866C14.1611 17.2824 13.4636 16.6454 13.4678 15.7468C13.472 14.9016 14.14 14.2224 15.0076 14.2421C15.8879 14.2618 16.5264 14.9073 16.5208 15.7454ZM20.2797 18.5044H17.7597H17.7583V27.0643H20.4217V26.8646C20.4217 26.4847 20.4214 26.1047 20.4211 25.7246C20.4203 24.7108 20.4194 23.6959 20.4246 22.6824C20.426 22.4363 20.4372 22.1804 20.5005 21.9455C20.7381 21.068 21.5271 20.5013 22.4074 20.6406C22.9727 20.7291 23.3467 21.0568 23.5042 21.5898C23.6013 21.923 23.6449 22.2816 23.6491 22.629C23.6605 23.6766 23.6589 24.7242 23.6573 25.7719C23.6567 26.1417 23.6561 26.5117 23.6561 26.8815V27.0629H26.328V26.8576C26.328 26.4056 26.3278 25.9537 26.3275 25.5018C26.327 24.3723 26.3264 23.2428 26.3294 22.1129C26.3308 21.6024 26.276 21.099 26.1508 20.6054C25.9638 19.8713 25.5771 19.2638 24.9485 18.8251C24.5027 18.5129 24.0133 18.3118 23.4663 18.2893C23.404 18.2867 23.3412 18.2833 23.2781 18.2799C22.9984 18.2648 22.7141 18.2494 22.4467 18.3033C21.6817 18.4566 21.0096 18.8068 20.5019 19.4241C20.4429 19.4949 20.3852 19.5668 20.2991 19.6741L20.2797 19.6984V18.5044ZM13.6816 27.0671H16.3324V18.51H13.6816V27.0671Z" fill="#121212"/>
</svg>
