<svg width="164" height="16" viewBox="0 0 194 20" fill="none" xmlns="http://www.w3.org/2000/svg">
<path d="M3.91263 15V5.544H0.632626V3.8H9.32063V5.544H6.05663V15H3.91263ZM13.014 15.192C12.246 15.192 11.5527 15.016 10.934 14.664C10.326 14.3013 9.84067 13.8053 9.478 13.176C9.126 12.536 8.95 11.8053 8.95 10.984C8.95 10.1413 9.126 9.40533 9.478 8.776C9.84067 8.136 10.3313 7.64 10.95 7.288C11.5687 6.92533 12.262 6.744 13.03 6.744C13.8087 6.744 14.502 6.92533 15.11 7.288C15.7287 7.64 16.214 8.136 16.566 8.776C16.9287 9.40533 17.11 10.136 17.11 10.968C17.11 11.8 16.9287 12.536 16.566 13.176C16.214 13.8053 15.7287 14.3013 15.11 14.664C14.4913 15.016 13.7927 15.192 13.014 15.192ZM13.014 13.32C13.3767 13.32 13.6967 13.2347 13.974 13.064C14.262 12.8933 14.486 12.632 14.646 12.28C14.8167 11.928 14.902 11.4907 14.902 10.968C14.902 10.4453 14.8167 10.0133 14.646 9.672C14.486 9.32 14.262 9.05867 13.974 8.888C13.6967 8.70667 13.382 8.616 13.03 8.616C12.6887 8.616 12.374 8.70667 12.086 8.888C11.798 9.05867 11.5687 9.32 11.398 9.672C11.238 10.0133 11.158 10.4453 11.158 10.968C11.158 11.4907 11.238 11.928 11.398 12.28C11.5687 12.632 11.7927 12.8933 12.07 13.064C12.358 13.2347 12.6727 13.32 13.014 13.32ZM24.0916 15L20.6516 10.584L23.7396 6.936H26.2836L22.2996 11.496V9.784L26.7796 15H24.0916ZM18.8116 15V3.48H20.9716V15H18.8116ZM30.9096 15.192C30.259 15.192 29.699 15.0587 29.2296 14.792C28.771 14.5147 28.419 14.1147 28.1736 13.592C27.9283 13.0587 27.8056 12.4027 27.8056 11.624V6.936H29.9656V11.4C29.9656 12.0507 30.099 12.5413 30.3656 12.872C30.643 13.2027 31.0643 13.368 31.6296 13.368C31.9923 13.368 32.3123 13.288 32.5896 13.128C32.867 12.9573 33.0856 12.7173 33.2456 12.408C33.4163 12.088 33.5016 11.6987 33.5016 11.24V6.936H35.6456V15H33.7576L33.5816 13.688C33.347 14.1467 33.0003 14.5147 32.5416 14.792C32.083 15.0587 31.539 15.192 30.9096 15.192ZM37.601 15V6.936H39.505L39.665 8.248C39.9103 7.8 40.257 7.43733 40.705 7.16C41.1637 6.88267 41.7077 6.744 42.337 6.744C43.009 6.744 43.5743 6.88267 44.033 7.16C44.4917 7.43733 44.8383 7.84267 45.073 8.376C45.3183 8.90933 45.441 9.56533 45.441 10.344V15H43.297V10.552C43.297 9.912 43.1583 9.42133 42.881 9.08C42.6143 8.73867 42.1983 8.568 41.633 8.568C41.2703 8.568 40.945 8.65333 40.657 8.824C40.3797 8.99467 40.161 9.24 40.001 9.56C39.841 9.86933 39.761 10.248 39.761 10.696V15H37.601ZM47.364 15V6.936H49.524V15H47.364ZM48.452 5.832C48.068 5.832 47.748 5.72 47.492 5.496C47.2467 5.26133 47.124 4.968 47.124 4.616C47.124 4.264 47.2467 3.976 47.492 3.752C47.748 3.51733 48.068 3.4 48.452 3.4C48.8467 3.4 49.1667 3.51733 49.412 3.752C49.668 3.976 49.796 4.264 49.796 4.616C49.796 4.968 49.668 5.26133 49.412 5.496C49.1667 5.72 48.8467 5.832 48.452 5.832ZM51.0186 15V13.272L55.0826 8.728H51.0666V6.936H57.5626V8.68L53.4666 13.208H57.6426V15H51.0186ZM63.1024 15.192C62.2917 15.192 61.5717 15.0213 60.9424 14.68C60.3237 14.328 59.8384 13.8427 59.4864 13.224C59.145 12.5947 58.9744 11.8693 58.9744 11.048C58.9744 10.2053 59.145 9.464 59.4864 8.824C59.8384 8.17333 60.3237 7.66667 60.9424 7.304C61.561 6.93067 62.281 6.744 63.1024 6.744C63.9024 6.744 64.601 6.92 65.1984 7.272C65.7957 7.624 66.2597 8.09867 66.5904 8.696C66.921 9.29333 67.0864 9.97067 67.0864 10.728C67.0864 10.8347 67.0864 10.9573 67.0864 11.096C67.0864 11.224 67.0757 11.3573 67.0544 11.496H60.5104V10.184H64.9104C64.8784 9.66133 64.6917 9.25067 64.3504 8.952C64.0197 8.65333 63.6037 8.504 63.1024 8.504C62.7397 8.504 62.4037 8.58933 62.0944 8.76C61.785 8.92 61.5397 9.17067 61.3584 9.512C61.1877 9.85333 61.1024 10.2853 61.1024 10.808V11.272C61.1024 11.7093 61.1824 12.0933 61.3424 12.424C61.513 12.744 61.7477 12.9947 62.0464 13.176C62.345 13.3467 62.6917 13.432 63.0864 13.432C63.481 13.432 63.8064 13.3467 64.0624 13.176C64.329 13.0053 64.5264 12.7867 64.6544 12.52H66.8624C66.713 13.0213 66.4624 13.4747 66.1104 13.88C65.7584 14.2853 65.3264 14.6053 64.8144 14.84C64.3024 15.0747 63.7317 15.192 63.1024 15.192Z" fill="#121212"/>
<rect x="74" width="20" height="20" rx="10" fill="#121212"/>
<path fill-rule="evenodd" clip-rule="evenodd" d="M80.8646 15.4859L85.0789 8.8418H87.0341L82.8294 15.4859H80.8646Z" fill="white"/>
<path d="M79.2029 4.43359H88.0353L88.6945 5.92376H79.8621L79.2029 4.43359Z" fill="white"/>
<path d="M77.3051 6.59766H89.8095L90.5932 8.08783H78.0888L77.3051 6.59766Z" fill="white"/>
</svg>
