<svg width="700" height="566"  viewBox="0 0 572 502" fill="none" xmlns="http://www.w3.org/2000/svg">
<g opacity="0.7">
<path d="M423 138.5C423 214.991 360.991 277 284.5 277C208.009 277 146 214.991 146 138.5C146 62.0086 208.009 0 284.5 0C360.991 0 423 62.0086 423 138.5ZM198.317 138.5C198.317 186.098 236.902 224.683 284.5 224.683C332.098 224.683 370.683 186.098 370.683 138.5C370.683 90.9022 332.098 52.3165 284.5 52.3165C236.902 52.3165 198.317 90.9022 198.317 138.5Z" fill="#C8E870"/>
<path d="M353.848 18.6123C325.295 2.0957 291.784 -3.68754 259.346 2.30335C226.908 8.29423 197.674 25.6658 176.903 51.292C156.133 76.9181 145.191 109.116 146.047 142.091C146.902 175.067 159.498 206.654 181.569 231.169L220.45 196.164C206.716 180.91 198.878 161.254 198.345 140.735C197.813 120.215 204.622 100.18 217.547 84.2336C230.471 68.2874 248.663 57.4777 268.848 53.7498C289.032 50.0219 309.885 53.6206 327.653 63.8983L353.848 18.6123Z" fill="#FEDF89"/>
<path d="M353.848 18.6123C335.268 7.86463 314.444 1.58267 293.02 0.262286L289.801 52.4797C303.133 53.3014 316.091 57.2104 327.653 63.8983L353.848 18.6123Z" fill="#98A2B3"/>
<path d="M232.579 146.367H229.945L235.863 129.922H238.729L244.648 146.367H242.014L237.364 132.909H237.236L232.579 146.367ZM233.02 139.927H241.564V142.015H233.02V139.927ZM249.231 129.922V146.367H246.83V129.922H249.231ZM254.862 129.922V146.367H252.461V129.922H254.862ZM263.287 146.616C262.131 146.616 261.122 146.351 260.26 145.821C259.398 145.291 258.729 144.55 258.252 143.597C257.776 142.644 257.538 141.531 257.538 140.257C257.538 138.977 257.776 137.858 258.252 136.9C258.729 135.942 259.398 135.198 260.26 134.668C261.122 134.138 262.131 133.873 263.287 133.873C264.443 133.873 265.452 134.138 266.314 134.668C267.176 135.198 267.845 135.942 268.322 136.9C268.798 137.858 269.036 138.977 269.036 140.257C269.036 141.531 268.798 142.644 268.322 143.597C267.845 144.55 267.176 145.291 266.314 145.821C265.452 146.351 264.443 146.616 263.287 146.616ZM263.295 144.601C264.044 144.601 264.665 144.403 265.158 144.007C265.65 143.61 266.014 143.083 266.25 142.425C266.491 141.766 266.611 141.041 266.611 140.249C266.611 139.462 266.491 138.739 266.25 138.08C266.014 137.417 265.65 136.884 265.158 136.482C264.665 136.081 264.044 135.88 263.295 135.88C262.54 135.88 261.914 136.081 261.416 136.482C260.923 136.884 260.557 137.417 260.316 138.08C260.08 138.739 259.963 139.462 259.963 140.249C259.963 141.041 260.08 141.766 260.316 142.425C260.557 143.083 260.923 143.61 261.416 144.007C261.914 144.403 262.54 144.601 263.295 144.601ZM276.912 146.616C275.718 146.616 274.69 146.346 273.828 145.805C272.972 145.259 272.313 144.507 271.853 143.549C271.392 142.591 271.162 141.493 271.162 140.257C271.162 139.004 271.398 137.898 271.869 136.94C272.34 135.977 273.004 135.224 273.86 134.684C274.717 134.143 275.726 133.873 276.888 133.873C277.824 133.873 278.66 134.047 279.393 134.395C280.126 134.737 280.718 135.219 281.168 135.84C281.623 136.461 281.893 137.186 281.979 138.016H279.642C279.513 137.438 279.219 136.94 278.759 136.523C278.304 136.105 277.693 135.896 276.928 135.896C276.259 135.896 275.672 136.073 275.169 136.426C274.671 136.774 274.283 137.272 274.005 137.92C273.727 138.562 273.587 139.322 273.587 140.2C273.587 141.1 273.724 141.876 273.997 142.529C274.27 143.182 274.655 143.688 275.153 144.047C275.656 144.405 276.248 144.585 276.928 144.585C277.383 144.585 277.795 144.502 278.164 144.336C278.539 144.164 278.852 143.921 279.104 143.605C279.361 143.289 279.54 142.909 279.642 142.465H281.979C281.893 143.262 281.633 143.974 281.2 144.601C280.766 145.227 280.185 145.72 279.457 146.078C278.734 146.437 277.886 146.616 276.912 146.616ZM288.136 146.64C287.354 146.64 286.647 146.496 286.016 146.207C285.384 145.912 284.883 145.487 284.514 144.93C284.15 144.373 283.968 143.691 283.968 142.882C283.968 142.186 284.102 141.614 284.369 141.164C284.637 140.714 284.999 140.358 285.454 140.096C285.909 139.834 286.417 139.636 286.979 139.502C287.541 139.368 288.114 139.266 288.698 139.197C289.436 139.111 290.036 139.041 290.496 138.988C290.957 138.929 291.291 138.835 291.5 138.707C291.709 138.578 291.813 138.37 291.813 138.08V138.024C291.813 137.323 291.615 136.78 291.219 136.394C290.828 136.009 290.245 135.816 289.468 135.816C288.66 135.816 288.023 135.995 287.557 136.354C287.097 136.707 286.778 137.101 286.602 137.534L284.345 137.02C284.613 136.271 285.004 135.666 285.518 135.206C286.037 134.74 286.634 134.403 287.308 134.194C287.983 133.98 288.692 133.873 289.436 133.873C289.929 133.873 290.451 133.932 291.002 134.049C291.559 134.162 292.078 134.371 292.56 134.676C293.047 134.981 293.446 135.417 293.756 135.985C294.067 136.547 294.222 137.277 294.222 138.177V146.367H291.877V144.681H291.781C291.626 144.992 291.393 145.297 291.083 145.596C290.772 145.896 290.373 146.145 289.886 146.343C289.399 146.541 288.815 146.64 288.136 146.64ZM288.657 144.713C289.321 144.713 289.889 144.582 290.36 144.32C290.836 144.057 291.198 143.715 291.444 143.292C291.695 142.864 291.821 142.406 291.821 141.919V140.329C291.736 140.414 291.57 140.495 291.323 140.57C291.083 140.639 290.807 140.701 290.496 140.754C290.186 140.803 289.883 140.848 289.589 140.891C289.295 140.928 289.048 140.96 288.85 140.987C288.384 141.046 287.959 141.145 287.573 141.284C287.193 141.424 286.888 141.624 286.658 141.887C286.433 142.144 286.321 142.486 286.321 142.914C286.321 143.509 286.54 143.958 286.979 144.263C287.418 144.563 287.978 144.713 288.657 144.713ZM303.178 134.033V135.961H296.44V134.033H303.178ZM298.247 131.078H300.648V142.746C300.648 143.212 300.718 143.562 300.857 143.798C300.996 144.028 301.175 144.186 301.395 144.272C301.62 144.352 301.863 144.392 302.126 144.392C302.318 144.392 302.487 144.379 302.632 144.352C302.776 144.325 302.888 144.304 302.969 144.288L303.402 146.271C303.263 146.324 303.065 146.378 302.808 146.432C302.551 146.49 302.23 146.523 301.845 146.528C301.213 146.539 300.624 146.426 300.078 146.191C299.532 145.955 299.09 145.591 298.753 145.099C298.416 144.606 298.247 143.988 298.247 143.244V131.078ZM305.833 146.367V134.033H308.234V146.367H305.833ZM307.046 132.13C306.628 132.13 306.27 131.991 305.97 131.713C305.676 131.429 305.528 131.092 305.528 130.701C305.528 130.305 305.676 129.968 305.97 129.689C306.27 129.405 306.628 129.264 307.046 129.264C307.464 129.264 307.82 129.405 308.114 129.689C308.414 129.968 308.564 130.305 308.564 130.701C308.564 131.092 308.414 131.429 308.114 131.713C307.82 131.991 307.464 132.13 307.046 132.13ZM316.66 146.616C315.503 146.616 314.494 146.351 313.633 145.821C312.771 145.291 312.101 144.55 311.625 143.597C311.149 142.644 310.91 141.531 310.91 140.257C310.91 138.977 311.149 137.858 311.625 136.9C312.101 135.942 312.771 135.198 313.633 134.668C314.494 134.138 315.503 133.873 316.66 133.873C317.816 133.873 318.825 134.138 319.687 134.668C320.549 135.198 321.218 135.942 321.695 136.9C322.171 137.858 322.409 138.977 322.409 140.257C322.409 141.531 322.171 142.644 321.695 143.597C321.218 144.55 320.549 145.291 319.687 145.821C318.825 146.351 317.816 146.616 316.66 146.616ZM316.668 144.601C317.417 144.601 318.038 144.403 318.531 144.007C319.023 143.61 319.387 143.083 319.623 142.425C319.864 141.766 319.984 141.041 319.984 140.249C319.984 139.462 319.864 138.739 319.623 138.08C319.387 137.417 319.023 136.884 318.531 136.482C318.038 136.081 317.417 135.88 316.668 135.88C315.913 135.88 315.287 136.081 314.789 136.482C314.296 136.884 313.93 137.417 313.689 138.08C313.453 138.739 313.335 139.462 313.335 140.249C313.335 141.041 313.453 141.766 313.689 142.425C313.93 143.083 314.296 143.61 314.789 144.007C315.287 144.403 315.913 144.601 316.668 144.601ZM327.49 139.044V146.367H325.089V134.033H327.394V136.041H327.546C327.83 135.388 328.274 134.863 328.879 134.467C329.49 134.071 330.258 133.873 331.184 133.873C332.024 133.873 332.76 134.049 333.392 134.403C334.024 134.751 334.514 135.27 334.862 135.961C335.21 136.651 335.384 137.505 335.384 138.522V146.367H332.983V138.811C332.983 137.917 332.75 137.219 332.284 136.715C331.818 136.207 331.179 135.953 330.365 135.953C329.808 135.953 329.313 136.073 328.879 136.314C328.451 136.555 328.111 136.908 327.86 137.374C327.613 137.834 327.49 138.391 327.49 139.044Z" fill="black"/>
</g>
<g filter="url(#filter0_d_846_1628)">
<rect x="376" y="79" width="156" height="120" rx="12" fill="white" shape-rendering="crispEdges"/>
<circle cx="392" cy="101" r="4" fill="#98A2B3"/>
<path d="M401.278 107V95.3636H403.034V100.42H408.835V95.3636H410.597V107H408.835V101.926H403.034V107H401.278ZM416.693 107.176C415.875 107.176 415.161 106.989 414.551 106.614C413.941 106.239 413.468 105.714 413.131 105.04C412.794 104.366 412.625 103.578 412.625 102.676C412.625 101.771 412.794 100.979 413.131 100.301C413.468 99.6231 413.941 99.0966 414.551 98.7216C415.161 98.3466 415.875 98.1591 416.693 98.1591C417.511 98.1591 418.225 98.3466 418.835 98.7216C419.445 99.0966 419.919 99.6231 420.256 100.301C420.593 100.979 420.761 101.771 420.761 102.676C420.761 103.578 420.593 104.366 420.256 105.04C419.919 105.714 419.445 106.239 418.835 106.614C418.225 106.989 417.511 107.176 416.693 107.176ZM416.699 105.75C417.229 105.75 417.669 105.61 418.017 105.33C418.366 105.049 418.623 104.676 418.79 104.21C418.96 103.744 419.045 103.231 419.045 102.67C419.045 102.114 418.96 101.602 418.79 101.136C418.623 100.667 418.366 100.29 418.017 100.006C417.669 99.7216 417.229 99.5795 416.699 99.5795C416.165 99.5795 415.722 99.7216 415.369 100.006C415.021 100.29 414.761 100.667 414.591 101.136C414.424 101.602 414.341 102.114 414.341 102.67C414.341 103.231 414.424 103.744 414.591 104.21C414.761 104.676 415.021 105.049 415.369 105.33C415.722 105.61 416.165 105.75 416.699 105.75ZM426.732 98.2727V99.6364H421.964V98.2727H426.732ZM423.243 96.1818H424.942V104.438C424.942 104.767 424.991 105.015 425.089 105.182C425.188 105.345 425.315 105.456 425.47 105.517C425.629 105.574 425.802 105.602 425.987 105.602C426.124 105.602 426.243 105.593 426.345 105.574C426.447 105.555 426.527 105.54 426.584 105.528L426.891 106.932C426.792 106.97 426.652 107.008 426.47 107.045C426.288 107.087 426.061 107.11 425.788 107.114C425.341 107.121 424.925 107.042 424.538 106.875C424.152 106.708 423.839 106.451 423.601 106.102C423.362 105.754 423.243 105.316 423.243 104.79V96.1818ZM432.278 107.176C431.419 107.176 430.678 106.992 430.057 106.625C429.439 106.254 428.962 105.733 428.625 105.062C428.292 104.388 428.125 103.598 428.125 102.693C428.125 101.799 428.292 101.011 428.625 100.33C428.962 99.6477 429.432 99.1155 430.034 98.733C430.64 98.3504 431.348 98.1591 432.159 98.1591C432.652 98.1591 433.129 98.2405 433.591 98.4034C434.053 98.5663 434.468 98.822 434.835 99.1705C435.203 99.5189 435.492 99.9716 435.705 100.528C435.917 101.081 436.023 101.754 436.023 102.545V103.148H429.085V101.875H434.358C434.358 101.428 434.267 101.032 434.085 100.688C433.903 100.339 433.648 100.064 433.318 99.8636C432.992 99.6629 432.61 99.5625 432.17 99.5625C431.693 99.5625 431.277 99.6799 430.92 99.9148C430.568 100.146 430.295 100.449 430.102 100.824C429.913 101.195 429.818 101.598 429.818 102.034V103.028C429.818 103.612 429.92 104.108 430.125 104.517C430.333 104.926 430.623 105.239 430.994 105.455C431.366 105.667 431.799 105.773 432.295 105.773C432.617 105.773 432.911 105.727 433.176 105.636C433.441 105.542 433.67 105.402 433.864 105.216C434.057 105.03 434.205 104.801 434.307 104.528L435.915 104.818C435.786 105.292 435.555 105.706 435.222 106.062C434.892 106.415 434.477 106.689 433.977 106.886C433.481 107.08 432.915 107.176 432.278 107.176ZM439.607 95.3636V107H437.908V95.3636H439.607Z" fill="black"/>
<path d="M446.621 101.182C446.621 99.7576 446.808 98.447 447.183 97.25C447.558 96.053 448.106 94.9489 448.825 93.9375H450.382C450.102 94.3125 449.84 94.7727 449.598 95.3182C449.356 95.8636 449.143 96.4621 448.962 97.1136C448.78 97.7614 448.638 98.4337 448.536 99.1307C448.433 99.8239 448.382 100.508 448.382 101.182C448.382 102.083 448.471 102.996 448.649 103.92C448.827 104.845 449.068 105.703 449.371 106.494C449.674 107.286 450.011 107.932 450.382 108.432H448.825C448.106 107.42 447.558 106.316 447.183 105.119C446.808 103.922 446.621 102.61 446.621 101.182ZM452.543 107L457.622 96.9545V96.8693H451.747V95.3636H459.44V96.9205L454.378 107H452.543ZM460.558 107.108C460.248 107.108 459.981 106.998 459.757 106.778C459.534 106.555 459.422 106.286 459.422 105.972C459.422 105.661 459.534 105.396 459.757 105.176C459.981 104.953 460.248 104.841 460.558 104.841C460.869 104.841 461.136 104.953 461.359 105.176C461.583 105.396 461.695 105.661 461.695 105.972C461.695 106.18 461.642 106.371 461.536 106.545C461.433 106.716 461.297 106.852 461.126 106.955C460.956 107.057 460.767 107.108 460.558 107.108ZM467.489 107.159C466.674 107.159 465.955 107.019 465.33 106.739C464.708 106.458 464.222 106.072 463.869 105.58C463.517 105.087 463.343 104.527 463.347 103.898C463.343 103.405 463.443 102.953 463.648 102.54C463.856 102.123 464.138 101.777 464.494 101.5C464.85 101.22 465.248 101.042 465.688 100.966V100.898C465.108 100.758 464.644 100.447 464.295 99.9659C463.947 99.4848 463.775 98.9318 463.778 98.3068C463.775 97.7121 463.932 97.1818 464.25 96.7159C464.572 96.2462 465.013 95.8769 465.574 95.608C466.134 95.339 466.773 95.2045 467.489 95.2045C468.197 95.2045 468.83 95.3409 469.386 95.6136C469.947 95.8826 470.388 96.2519 470.71 96.7216C471.032 97.1875 471.195 97.7159 471.199 98.3068C471.195 98.9318 471.017 99.4848 470.665 99.9659C470.313 100.447 469.854 100.758 469.29 100.898V100.966C469.725 101.042 470.117 101.22 470.466 101.5C470.818 101.777 471.098 102.123 471.307 102.54C471.519 102.953 471.627 103.405 471.631 103.898C471.627 104.527 471.449 105.087 471.097 105.58C470.744 106.072 470.256 106.458 469.631 106.739C469.009 107.019 468.295 107.159 467.489 107.159ZM467.489 105.722C467.97 105.722 468.386 105.642 468.739 105.483C469.091 105.32 469.364 105.095 469.557 104.807C469.75 104.515 469.848 104.174 469.852 103.784C469.848 103.379 469.742 103.021 469.534 102.71C469.33 102.4 469.051 102.155 468.699 101.977C468.347 101.799 467.943 101.71 467.489 101.71C467.03 101.71 466.623 101.799 466.267 101.977C465.911 102.155 465.631 102.4 465.426 102.71C465.222 103.021 465.121 103.379 465.125 103.784C465.121 104.174 465.214 104.515 465.403 104.807C465.597 105.095 465.871 105.32 466.227 105.483C466.583 105.642 467.004 105.722 467.489 105.722ZM467.489 100.307C467.875 100.307 468.218 100.229 468.517 100.074C468.816 99.9186 469.051 99.7027 469.222 99.4261C469.396 99.1496 469.485 98.8258 469.489 98.4545C469.485 98.0909 469.398 97.7727 469.227 97.5C469.061 97.2273 468.828 97.017 468.528 96.8693C468.229 96.7178 467.883 96.642 467.489 96.642C467.087 96.642 466.735 96.7178 466.432 96.8693C466.133 97.017 465.9 97.2273 465.733 97.5C465.566 97.7727 465.485 98.0909 465.489 98.4545C465.485 98.8258 465.568 99.1496 465.739 99.4261C465.909 99.7027 466.144 99.9186 466.443 100.074C466.746 100.229 467.095 100.307 467.489 100.307ZM479.74 104.818V104.205C479.74 103.765 479.831 103.364 480.013 103C480.198 102.633 480.467 102.339 480.82 102.119C481.176 101.896 481.606 101.784 482.109 101.784C482.625 101.784 483.056 101.894 483.405 102.114C483.753 102.333 484.017 102.627 484.195 102.994C484.376 103.362 484.467 103.765 484.467 104.205V104.818C484.467 105.258 484.376 105.661 484.195 106.028C484.013 106.392 483.746 106.686 483.393 106.909C483.045 107.129 482.617 107.239 482.109 107.239C481.598 107.239 481.166 107.129 480.814 106.909C480.462 106.686 480.195 106.392 480.013 106.028C479.831 105.661 479.74 105.258 479.74 104.818ZM481.064 104.205V104.818C481.064 105.144 481.142 105.439 481.297 105.705C481.452 105.97 481.723 106.102 482.109 106.102C482.492 106.102 482.759 105.97 482.911 105.705C483.062 105.439 483.138 105.144 483.138 104.818V104.205C483.138 103.879 483.064 103.583 482.916 103.318C482.772 103.053 482.503 102.92 482.109 102.92C481.731 102.92 481.462 103.053 481.303 103.318C481.143 103.583 481.064 103.879 481.064 104.205ZM473.888 98.1591V97.5455C473.888 97.1061 473.979 96.7027 474.161 96.3352C474.346 95.9678 474.615 95.6742 474.967 95.4545C475.323 95.2348 475.753 95.125 476.257 95.125C476.772 95.125 477.204 95.2348 477.553 95.4545C477.901 95.6742 478.164 95.9678 478.342 96.3352C478.52 96.7027 478.609 97.1061 478.609 97.5455V98.1591C478.609 98.5985 478.518 99.0019 478.337 99.3693C478.159 99.733 477.893 100.027 477.541 100.25C477.193 100.47 476.765 100.58 476.257 100.58C475.742 100.58 475.308 100.47 474.956 100.25C474.607 100.027 474.342 99.733 474.161 99.3693C473.979 99.0019 473.888 98.5985 473.888 98.1591ZM475.217 97.5455V98.1591C475.217 98.4848 475.293 98.7803 475.445 99.0455C475.6 99.3106 475.871 99.4432 476.257 99.4432C476.636 99.4432 476.901 99.3106 477.053 99.0455C477.208 98.7803 477.286 98.4848 477.286 98.1591V97.5455C477.286 97.2197 477.212 96.9242 477.064 96.6591C476.916 96.3939 476.647 96.2614 476.257 96.2614C475.878 96.2614 475.609 96.3939 475.45 96.6591C475.295 96.9242 475.217 97.2197 475.217 97.5455ZM474.428 107L482.428 95.3636H483.786L475.786 107H474.428ZM490.206 101.182C490.206 102.61 490.018 103.922 489.643 105.119C489.268 106.316 488.721 107.42 488.001 108.432H486.445C486.725 108.057 486.986 107.597 487.229 107.051C487.471 106.506 487.683 105.909 487.865 105.261C488.047 104.61 488.189 103.936 488.291 103.239C488.393 102.542 488.445 101.856 488.445 101.182C488.445 100.284 488.356 99.3731 488.178 98.4489C488 97.5246 487.759 96.6667 487.456 95.875C487.153 95.0833 486.816 94.4375 486.445 93.9375H488.001C488.721 94.9489 489.268 96.053 489.643 97.25C490.018 98.447 490.206 99.7576 490.206 101.182Z" fill="#98A2B3"/>
<circle cx="392" cy="139" r="4" fill="#FEDF89"/>
<path d="M411.386 139.182C411.386 140.424 411.159 141.492 410.705 142.386C410.25 143.277 409.627 143.962 408.835 144.443C408.047 144.92 407.152 145.159 406.148 145.159C405.14 145.159 404.241 144.92 403.449 144.443C402.661 143.962 402.04 143.275 401.585 142.381C401.131 141.487 400.903 140.42 400.903 139.182C400.903 137.939 401.131 136.873 401.585 135.983C402.04 135.089 402.661 134.403 403.449 133.926C404.241 133.445 405.14 133.205 406.148 133.205C407.152 133.205 408.047 133.445 408.835 133.926C409.627 134.403 410.25 135.089 410.705 135.983C411.159 136.873 411.386 137.939 411.386 139.182ZM409.648 139.182C409.648 138.235 409.494 137.437 409.188 136.79C408.884 136.138 408.468 135.646 407.938 135.312C407.411 134.975 406.814 134.807 406.148 134.807C405.477 134.807 404.879 134.975 404.352 135.312C403.826 135.646 403.409 136.138 403.102 136.79C402.799 137.437 402.648 138.235 402.648 139.182C402.648 140.129 402.799 140.928 403.102 141.58C403.409 142.227 403.826 142.72 404.352 143.057C404.879 143.39 405.477 143.557 406.148 143.557C406.814 143.557 407.411 143.39 407.938 143.057C408.468 142.72 408.884 142.227 409.188 141.58C409.494 140.928 409.648 140.129 409.648 139.182ZM417.592 136.273V137.636H412.661V136.273H417.592ZM414.013 145V135.261C414.013 134.716 414.132 134.263 414.371 133.903C414.609 133.54 414.926 133.269 415.32 133.091C415.714 132.909 416.142 132.818 416.604 132.818C416.945 132.818 417.236 132.847 417.479 132.903C417.721 132.956 417.901 133.006 418.018 133.051L417.621 134.426C417.541 134.403 417.439 134.377 417.314 134.347C417.189 134.312 417.037 134.295 416.859 134.295C416.446 134.295 416.151 134.398 415.973 134.602C415.799 134.807 415.712 135.102 415.712 135.489V145H414.013ZM423.499 136.273V137.636H418.567V136.273H423.499ZM419.919 145V135.261C419.919 134.716 420.038 134.263 420.277 133.903C420.516 133.54 420.832 133.269 421.226 133.091C421.62 132.909 422.048 132.818 422.51 132.818C422.851 132.818 423.143 132.847 423.385 132.903C423.627 132.956 423.807 133.006 423.925 133.051L423.527 134.426C423.447 134.403 423.345 134.377 423.22 134.347C423.095 134.312 422.944 134.295 422.766 134.295C422.353 134.295 422.057 134.398 421.879 134.602C421.705 134.807 421.618 135.102 421.618 135.489V145H419.919ZM425.251 145V136.273H426.95V145H425.251ZM426.109 134.926C425.814 134.926 425.56 134.828 425.348 134.631C425.14 134.43 425.036 134.191 425.036 133.915C425.036 133.634 425.14 133.396 425.348 133.199C425.56 132.998 425.814 132.898 426.109 132.898C426.405 132.898 426.657 132.998 426.865 133.199C427.077 133.396 427.183 133.634 427.183 133.915C427.183 134.191 427.077 134.43 426.865 134.631C426.657 134.828 426.405 134.926 426.109 134.926ZM432.912 145.176C432.067 145.176 431.34 144.985 430.73 144.602C430.124 144.216 429.658 143.684 429.332 143.006C429.007 142.328 428.844 141.551 428.844 140.676C428.844 139.79 429.01 139.008 429.344 138.33C429.677 137.648 430.147 137.116 430.753 136.733C431.359 136.35 432.073 136.159 432.895 136.159C433.558 136.159 434.149 136.282 434.668 136.528C435.187 136.771 435.605 137.112 435.923 137.551C436.245 137.991 436.437 138.504 436.497 139.091H434.844C434.753 138.682 434.545 138.33 434.219 138.034C433.897 137.739 433.465 137.591 432.923 137.591C432.45 137.591 432.035 137.716 431.679 137.966C431.327 138.212 431.052 138.564 430.855 139.023C430.658 139.477 430.56 140.015 430.56 140.636C430.56 141.273 430.656 141.822 430.849 142.284C431.043 142.746 431.315 143.104 431.668 143.358C432.024 143.612 432.442 143.739 432.923 143.739C433.245 143.739 433.537 143.68 433.798 143.562C434.063 143.441 434.285 143.269 434.463 143.045C434.645 142.822 434.772 142.553 434.844 142.239H436.497C436.437 142.803 436.253 143.307 435.946 143.75C435.639 144.193 435.228 144.542 434.713 144.795C434.202 145.049 433.601 145.176 432.912 145.176ZM442.075 145.176C441.215 145.176 440.475 144.992 439.854 144.625C439.236 144.254 438.759 143.733 438.422 143.062C438.089 142.388 437.922 141.598 437.922 140.693C437.922 139.799 438.089 139.011 438.422 138.33C438.759 137.648 439.229 137.116 439.831 136.733C440.437 136.35 441.145 136.159 441.956 136.159C442.448 136.159 442.926 136.241 443.388 136.403C443.85 136.566 444.265 136.822 444.632 137.17C445 137.519 445.289 137.972 445.501 138.528C445.714 139.081 445.82 139.754 445.82 140.545V141.148H438.882V139.875H444.155C444.155 139.428 444.064 139.032 443.882 138.688C443.7 138.339 443.445 138.064 443.115 137.864C442.789 137.663 442.407 137.562 441.967 137.562C441.49 137.562 441.073 137.68 440.717 137.915C440.365 138.146 440.092 138.449 439.899 138.824C439.71 139.195 439.615 139.598 439.615 140.034V141.028C439.615 141.612 439.717 142.108 439.922 142.517C440.13 142.926 440.42 143.239 440.791 143.455C441.162 143.667 441.596 143.773 442.092 143.773C442.414 143.773 442.708 143.727 442.973 143.636C443.238 143.542 443.467 143.402 443.661 143.216C443.854 143.03 444.001 142.801 444.104 142.528L445.712 142.818C445.583 143.292 445.352 143.706 445.018 144.062C444.689 144.415 444.274 144.689 443.774 144.886C443.278 145.08 442.712 145.176 442.075 145.176Z" fill="black"/>
<path d="M452.433 139.182C452.433 137.758 452.621 136.447 452.996 135.25C453.371 134.053 453.918 132.949 454.638 131.938H456.195C455.914 132.312 455.653 132.773 455.411 133.318C455.168 133.864 454.956 134.462 454.774 135.114C454.592 135.761 454.45 136.434 454.348 137.131C454.246 137.824 454.195 138.508 454.195 139.182C454.195 140.083 454.284 140.996 454.462 141.92C454.64 142.845 454.88 143.703 455.183 144.494C455.486 145.286 455.823 145.932 456.195 146.432H454.638C453.918 145.42 453.371 144.316 452.996 143.119C452.621 141.922 452.433 140.61 452.433 139.182ZM462.378 133.364V145H460.616V135.125H460.548L457.764 136.943V135.261L460.668 133.364H462.378ZM469.457 145.159C468.643 145.159 467.923 145.019 467.298 144.739C466.677 144.458 466.19 144.072 465.838 143.58C465.486 143.087 465.312 142.527 465.315 141.898C465.312 141.405 465.412 140.953 465.616 140.54C465.825 140.123 466.107 139.777 466.463 139.5C466.819 139.22 467.217 139.042 467.656 138.966V138.898C467.077 138.758 466.613 138.447 466.264 137.966C465.916 137.485 465.743 136.932 465.747 136.307C465.743 135.712 465.901 135.182 466.219 134.716C466.541 134.246 466.982 133.877 467.543 133.608C468.103 133.339 468.741 133.205 469.457 133.205C470.166 133.205 470.798 133.341 471.355 133.614C471.916 133.883 472.357 134.252 472.679 134.722C473.001 135.187 473.164 135.716 473.168 136.307C473.164 136.932 472.986 137.485 472.634 137.966C472.281 138.447 471.823 138.758 471.259 138.898V138.966C471.694 139.042 472.086 139.22 472.435 139.5C472.787 139.777 473.067 140.123 473.276 140.54C473.488 140.953 473.596 141.405 473.599 141.898C473.596 142.527 473.418 143.087 473.065 143.58C472.713 144.072 472.224 144.458 471.599 144.739C470.978 145.019 470.264 145.159 469.457 145.159ZM469.457 143.722C469.938 143.722 470.355 143.642 470.707 143.483C471.06 143.32 471.332 143.095 471.526 142.807C471.719 142.515 471.817 142.174 471.821 141.784C471.817 141.379 471.711 141.021 471.503 140.71C471.298 140.4 471.02 140.155 470.668 139.977C470.315 139.799 469.912 139.71 469.457 139.71C468.999 139.71 468.592 139.799 468.236 139.977C467.88 140.155 467.599 140.4 467.395 140.71C467.19 141.021 467.09 141.379 467.094 141.784C467.09 142.174 467.183 142.515 467.372 142.807C467.565 143.095 467.84 143.32 468.196 143.483C468.552 143.642 468.973 143.722 469.457 143.722ZM469.457 138.307C469.844 138.307 470.187 138.229 470.486 138.074C470.785 137.919 471.02 137.703 471.19 137.426C471.365 137.15 471.454 136.826 471.457 136.455C471.454 136.091 471.366 135.773 471.196 135.5C471.029 135.227 470.796 135.017 470.497 134.869C470.198 134.718 469.851 134.642 469.457 134.642C469.056 134.642 468.704 134.718 468.401 134.869C468.101 135.017 467.868 135.227 467.702 135.5C467.535 135.773 467.454 136.091 467.457 136.455C467.454 136.826 467.537 137.15 467.707 137.426C467.878 137.703 468.113 137.919 468.412 138.074C468.715 138.229 469.063 138.307 469.457 138.307ZM476.433 145.108C476.123 145.108 475.856 144.998 475.632 144.778C475.409 144.555 475.297 144.286 475.297 143.972C475.297 143.661 475.409 143.396 475.632 143.176C475.856 142.953 476.123 142.841 476.433 142.841C476.744 142.841 477.011 142.953 477.234 143.176C477.458 143.396 477.57 143.661 477.57 143.972C477.57 144.18 477.517 144.371 477.411 144.545C477.308 144.716 477.172 144.852 477.001 144.955C476.831 145.057 476.642 145.108 476.433 145.108ZM479.822 145V143.727L483.76 139.648C484.18 139.205 484.527 138.816 484.8 138.483C485.076 138.146 485.283 137.826 485.419 137.523C485.555 137.22 485.624 136.898 485.624 136.557C485.624 136.17 485.533 135.837 485.351 135.557C485.169 135.273 484.921 135.055 484.607 134.903C484.292 134.748 483.938 134.67 483.544 134.67C483.127 134.67 482.764 134.756 482.453 134.926C482.143 135.097 481.904 135.337 481.737 135.648C481.571 135.958 481.487 136.322 481.487 136.739H479.811C479.811 136.03 479.974 135.411 480.3 134.881C480.625 134.35 481.072 133.939 481.641 133.648C482.209 133.352 482.855 133.205 483.578 133.205C484.309 133.205 484.953 133.35 485.51 133.642C486.071 133.93 486.508 134.324 486.822 134.824C487.137 135.32 487.294 135.881 487.294 136.506C487.294 136.938 487.213 137.36 487.05 137.773C486.891 138.186 486.612 138.646 486.214 139.153C485.817 139.657 485.264 140.269 484.555 140.989L482.243 143.409V143.494H487.482V145H479.822ZM495.709 142.818V142.205C495.709 141.765 495.8 141.364 495.982 141C496.167 140.633 496.436 140.339 496.788 140.119C497.144 139.896 497.574 139.784 498.078 139.784C498.593 139.784 499.025 139.894 499.374 140.114C499.722 140.333 499.985 140.627 500.163 140.994C500.345 141.362 500.436 141.765 500.436 142.205V142.818C500.436 143.258 500.345 143.661 500.163 144.028C499.982 144.392 499.714 144.686 499.362 144.909C499.014 145.129 498.586 145.239 498.078 145.239C497.567 145.239 497.135 145.129 496.783 144.909C496.43 144.686 496.163 144.392 495.982 144.028C495.8 143.661 495.709 143.258 495.709 142.818ZM497.033 142.205V142.818C497.033 143.144 497.11 143.439 497.266 143.705C497.421 143.97 497.692 144.102 498.078 144.102C498.461 144.102 498.728 143.97 498.879 143.705C499.031 143.439 499.107 143.144 499.107 142.818V142.205C499.107 141.879 499.033 141.583 498.885 141.318C498.741 141.053 498.472 140.92 498.078 140.92C497.699 140.92 497.43 141.053 497.271 141.318C497.112 141.583 497.033 141.879 497.033 142.205ZM489.857 136.159V135.545C489.857 135.106 489.947 134.703 490.129 134.335C490.315 133.968 490.584 133.674 490.936 133.455C491.292 133.235 491.722 133.125 492.226 133.125C492.741 133.125 493.173 133.235 493.521 133.455C493.87 133.674 494.133 133.968 494.311 134.335C494.489 134.703 494.578 135.106 494.578 135.545V136.159C494.578 136.598 494.487 137.002 494.305 137.369C494.127 137.733 493.862 138.027 493.51 138.25C493.161 138.47 492.733 138.58 492.226 138.58C491.711 138.58 491.277 138.47 490.925 138.25C490.576 138.027 490.311 137.733 490.129 137.369C489.947 137.002 489.857 136.598 489.857 136.159ZM491.186 135.545V136.159C491.186 136.485 491.262 136.78 491.413 137.045C491.569 137.311 491.839 137.443 492.226 137.443C492.605 137.443 492.87 137.311 493.021 137.045C493.177 136.78 493.254 136.485 493.254 136.159V135.545C493.254 135.22 493.18 134.924 493.033 134.659C492.885 134.394 492.616 134.261 492.226 134.261C491.847 134.261 491.578 134.394 491.419 134.659C491.264 134.924 491.186 135.22 491.186 135.545ZM490.396 145L498.396 133.364H499.754L491.754 145H490.396ZM506.175 139.182C506.175 140.61 505.987 141.922 505.612 143.119C505.237 144.316 504.69 145.42 503.97 146.432H502.413C502.694 146.057 502.955 145.597 503.197 145.051C503.44 144.506 503.652 143.909 503.834 143.261C504.016 142.61 504.158 141.936 504.26 141.239C504.362 140.542 504.413 139.856 504.413 139.182C504.413 138.284 504.324 137.373 504.146 136.449C503.968 135.525 503.728 134.667 503.425 133.875C503.122 133.083 502.785 132.438 502.413 131.938H503.97C504.69 132.949 505.237 134.053 505.612 135.25C505.987 136.447 506.175 137.758 506.175 139.182Z" fill="#98A2B3"/>
<circle cx="392" cy="177" r="4" fill="#C8E870"/>
<path d="M403.034 171.364V183H401.278V171.364H403.034ZM407.153 177.818V183H405.455V174.273H407.085V175.693H407.193C407.394 175.231 407.708 174.86 408.136 174.58C408.568 174.299 409.112 174.159 409.767 174.159C410.362 174.159 410.883 174.284 411.33 174.534C411.777 174.78 412.123 175.148 412.369 175.636C412.616 176.125 412.739 176.729 412.739 177.449V183H411.04V177.653C411.04 177.021 410.875 176.527 410.545 176.17C410.216 175.811 409.763 175.631 409.188 175.631C408.794 175.631 408.443 175.716 408.136 175.886C407.833 176.057 407.593 176.307 407.415 176.636C407.241 176.962 407.153 177.356 407.153 177.818ZM418.284 183.17C417.58 183.17 416.951 182.991 416.398 182.631C415.848 182.267 415.417 181.75 415.102 181.08C414.792 180.405 414.636 179.597 414.636 178.653C414.636 177.71 414.794 176.903 415.108 176.233C415.426 175.562 415.862 175.049 416.415 174.693C416.968 174.337 417.595 174.159 418.295 174.159C418.837 174.159 419.273 174.25 419.602 174.432C419.936 174.61 420.193 174.818 420.375 175.057C420.561 175.295 420.705 175.506 420.807 175.688H420.909V171.364H422.608V183H420.949V181.642H420.807C420.705 181.828 420.557 182.04 420.364 182.278C420.174 182.517 419.913 182.725 419.58 182.903C419.246 183.081 418.814 183.17 418.284 183.17ZM418.659 181.722C419.148 181.722 419.561 181.593 419.898 181.335C420.239 181.074 420.496 180.712 420.67 180.25C420.848 179.788 420.938 179.25 420.938 178.636C420.938 178.03 420.85 177.5 420.676 177.045C420.502 176.591 420.246 176.237 419.909 175.983C419.572 175.729 419.155 175.602 418.659 175.602C418.148 175.602 417.722 175.735 417.381 176C417.04 176.265 416.782 176.627 416.608 177.085C416.438 177.544 416.352 178.061 416.352 178.636C416.352 179.22 416.439 179.744 416.614 180.21C416.788 180.676 417.045 181.045 417.386 181.318C417.731 181.587 418.155 181.722 418.659 181.722ZM430.561 179.381V174.273H432.266V183H430.595V181.489H430.504C430.304 181.955 429.982 182.343 429.538 182.653C429.099 182.96 428.552 183.114 427.896 183.114C427.336 183.114 426.839 182.991 426.408 182.744C425.98 182.494 425.643 182.125 425.396 181.636C425.154 181.148 425.033 180.544 425.033 179.824V174.273H426.732V179.619C426.732 180.214 426.896 180.687 427.226 181.04C427.555 181.392 427.983 181.568 428.51 181.568C428.828 181.568 429.144 181.489 429.459 181.33C429.777 181.17 430.04 180.93 430.249 180.608C430.461 180.286 430.565 179.877 430.561 179.381ZM441.088 176.403L439.548 176.676C439.484 176.479 439.382 176.292 439.241 176.114C439.105 175.936 438.92 175.79 438.685 175.676C438.45 175.562 438.156 175.506 437.804 175.506C437.323 175.506 436.921 175.614 436.599 175.83C436.277 176.042 436.116 176.316 436.116 176.653C436.116 176.945 436.224 177.18 436.44 177.358C436.656 177.536 437.005 177.682 437.486 177.795L438.872 178.114C439.675 178.299 440.274 178.585 440.668 178.972C441.062 179.358 441.259 179.86 441.259 180.477C441.259 181 441.107 181.466 440.804 181.875C440.505 182.28 440.086 182.598 439.548 182.83C439.014 183.061 438.395 183.176 437.69 183.176C436.713 183.176 435.916 182.968 435.298 182.551C434.681 182.131 434.302 181.534 434.162 180.761L435.804 180.511C435.906 180.939 436.116 181.263 436.435 181.483C436.753 181.699 437.168 181.807 437.679 181.807C438.236 181.807 438.681 181.691 439.014 181.46C439.348 181.225 439.514 180.939 439.514 180.602C439.514 180.33 439.412 180.1 439.207 179.915C439.007 179.729 438.698 179.589 438.281 179.494L436.804 179.17C435.99 178.985 435.387 178.689 434.997 178.284C434.611 177.879 434.418 177.366 434.418 176.744C434.418 176.229 434.562 175.778 434.849 175.392C435.137 175.006 435.535 174.705 436.043 174.489C436.55 174.269 437.132 174.159 437.787 174.159C438.73 174.159 439.473 174.364 440.014 174.773C440.556 175.178 440.914 175.722 441.088 176.403ZM447.2 174.273V175.636H442.433V174.273H447.2ZM443.712 172.182H445.411V180.438C445.411 180.767 445.46 181.015 445.558 181.182C445.657 181.345 445.784 181.456 445.939 181.517C446.098 181.574 446.27 181.602 446.456 181.602C446.592 181.602 446.712 181.593 446.814 181.574C446.916 181.555 446.996 181.54 447.053 181.528L447.359 182.932C447.261 182.97 447.121 183.008 446.939 183.045C446.757 183.087 446.53 183.11 446.257 183.114C445.81 183.121 445.393 183.042 445.007 182.875C444.621 182.708 444.308 182.451 444.07 182.102C443.831 181.754 443.712 181.316 443.712 180.79V172.182ZM449.08 183V174.273H450.722V175.659H450.812C450.972 175.189 451.252 174.82 451.653 174.551C452.059 174.278 452.517 174.142 453.028 174.142C453.134 174.142 453.259 174.146 453.403 174.153C453.551 174.161 453.667 174.17 453.75 174.182V175.807C453.682 175.788 453.561 175.767 453.386 175.744C453.212 175.718 453.038 175.705 452.864 175.705C452.462 175.705 452.104 175.79 451.79 175.96C451.479 176.127 451.233 176.36 451.051 176.659C450.869 176.955 450.778 177.292 450.778 177.67V183H449.08ZM455.22 183V174.273H456.919V183H455.22ZM456.078 172.926C455.783 172.926 455.529 172.828 455.317 172.631C455.108 172.43 455.004 172.191 455.004 171.915C455.004 171.634 455.108 171.396 455.317 171.199C455.529 170.998 455.783 170.898 456.078 170.898C456.374 170.898 456.625 170.998 456.834 171.199C457.046 171.396 457.152 171.634 457.152 171.915C457.152 172.191 457.046 172.43 456.834 172.631C456.625 172.828 456.374 172.926 456.078 172.926ZM461.744 183.193C461.191 183.193 460.691 183.091 460.244 182.886C459.797 182.678 459.443 182.377 459.182 181.983C458.924 181.589 458.795 181.106 458.795 180.534C458.795 180.042 458.89 179.636 459.08 179.318C459.269 179 459.525 178.748 459.847 178.562C460.169 178.377 460.528 178.237 460.926 178.142C461.324 178.047 461.729 177.975 462.142 177.926C462.665 177.866 463.089 177.816 463.415 177.778C463.741 177.737 463.977 177.67 464.125 177.58C464.273 177.489 464.347 177.341 464.347 177.136V177.097C464.347 176.6 464.206 176.216 463.926 175.943C463.65 175.67 463.237 175.534 462.688 175.534C462.116 175.534 461.665 175.661 461.335 175.915C461.009 176.165 460.784 176.443 460.659 176.75L459.062 176.386C459.252 175.856 459.528 175.428 459.892 175.102C460.259 174.773 460.682 174.534 461.159 174.386C461.636 174.235 462.138 174.159 462.665 174.159C463.013 174.159 463.383 174.201 463.773 174.284C464.167 174.364 464.534 174.511 464.875 174.727C465.22 174.943 465.502 175.252 465.722 175.653C465.941 176.051 466.051 176.568 466.051 177.205V183H464.392V181.807H464.324C464.214 182.027 464.049 182.242 463.83 182.455C463.61 182.667 463.328 182.843 462.983 182.983C462.638 183.123 462.225 183.193 461.744 183.193ZM462.114 181.83C462.583 181.83 462.985 181.737 463.318 181.551C463.655 181.366 463.911 181.123 464.085 180.824C464.263 180.521 464.352 180.197 464.352 179.852V178.727C464.292 178.788 464.174 178.845 464 178.898C463.83 178.947 463.634 178.991 463.415 179.028C463.195 179.062 462.981 179.095 462.773 179.125C462.564 179.152 462.39 179.174 462.25 179.193C461.92 179.235 461.619 179.305 461.347 179.403C461.078 179.502 460.862 179.644 460.699 179.83C460.54 180.011 460.46 180.254 460.46 180.557C460.46 180.977 460.616 181.295 460.926 181.511C461.237 181.723 461.633 181.83 462.114 181.83ZM470.013 171.364V183H468.314V171.364H470.013Z" fill="black"/>
<path d="M477.027 177.182C477.027 175.758 477.214 174.447 477.589 173.25C477.964 172.053 478.512 170.949 479.232 169.938H480.788C480.508 170.312 480.247 170.773 480.004 171.318C479.762 171.864 479.55 172.462 479.368 173.114C479.186 173.761 479.044 174.434 478.942 175.131C478.839 175.824 478.788 176.508 478.788 177.182C478.788 178.083 478.877 178.996 479.055 179.92C479.233 180.845 479.474 181.703 479.777 182.494C480.08 183.286 480.417 183.932 480.788 184.432H479.232C478.512 183.42 477.964 182.316 477.589 181.119C477.214 179.922 477.027 178.61 477.027 177.182ZM482.949 183L488.028 172.955V172.869H482.153V171.364H489.847V172.92L484.784 183H482.949ZM490.641 180.727V179.307L495.669 171.364H496.788V173.455H496.078L492.482 179.148V179.239H499.374V180.727H490.641ZM496.158 183V180.295L496.169 179.648V171.364H497.834V183H496.158ZM507.428 180.818V180.205C507.428 179.765 507.518 179.364 507.7 179C507.886 178.633 508.155 178.339 508.507 178.119C508.863 177.896 509.293 177.784 509.797 177.784C510.312 177.784 510.744 177.894 511.092 178.114C511.441 178.333 511.704 178.627 511.882 178.994C512.064 179.362 512.155 179.765 512.155 180.205V180.818C512.155 181.258 512.064 181.661 511.882 182.028C511.7 182.392 511.433 182.686 511.081 182.909C510.732 183.129 510.304 183.239 509.797 183.239C509.286 183.239 508.854 183.129 508.501 182.909C508.149 182.686 507.882 182.392 507.7 182.028C507.518 181.661 507.428 181.258 507.428 180.818ZM508.751 180.205V180.818C508.751 181.144 508.829 181.439 508.984 181.705C509.14 181.97 509.411 182.102 509.797 182.102C510.179 182.102 510.446 181.97 510.598 181.705C510.75 181.439 510.825 181.144 510.825 180.818V180.205C510.825 179.879 510.751 179.583 510.604 179.318C510.46 179.053 510.191 178.92 509.797 178.92C509.418 178.92 509.149 179.053 508.99 179.318C508.831 179.583 508.751 179.879 508.751 180.205ZM501.575 174.159V173.545C501.575 173.106 501.666 172.703 501.848 172.335C502.034 171.968 502.303 171.674 502.655 171.455C503.011 171.235 503.441 171.125 503.945 171.125C504.46 171.125 504.892 171.235 505.24 171.455C505.589 171.674 505.852 171.968 506.03 172.335C506.208 172.703 506.297 173.106 506.297 173.545V174.159C506.297 174.598 506.206 175.002 506.024 175.369C505.846 175.733 505.581 176.027 505.229 176.25C504.88 176.47 504.452 176.58 503.945 176.58C503.429 176.58 502.996 176.47 502.643 176.25C502.295 176.027 502.03 175.733 501.848 175.369C501.666 175.002 501.575 174.598 501.575 174.159ZM502.905 173.545V174.159C502.905 174.485 502.981 174.78 503.132 175.045C503.287 175.311 503.558 175.443 503.945 175.443C504.323 175.443 504.589 175.311 504.74 175.045C504.895 174.78 504.973 174.485 504.973 174.159V173.545C504.973 173.22 504.899 172.924 504.751 172.659C504.604 172.394 504.335 172.261 503.945 172.261C503.566 172.261 503.297 172.394 503.138 172.659C502.982 172.924 502.905 173.22 502.905 173.545ZM502.115 183L510.115 171.364H511.473L503.473 183H502.115ZM517.893 177.182C517.893 178.61 517.706 179.922 517.331 181.119C516.956 182.316 516.409 183.42 515.689 184.432H514.132C514.412 184.057 514.674 183.597 514.916 183.051C515.159 182.506 515.371 181.909 515.553 181.261C515.734 180.61 515.876 179.936 515.979 179.239C516.081 178.542 516.132 177.856 516.132 177.182C516.132 176.284 516.043 175.373 515.865 174.449C515.687 173.525 515.446 172.667 515.143 171.875C514.84 171.083 514.503 170.438 514.132 169.938H515.689C516.409 170.949 516.956 172.053 517.331 173.25C517.706 174.447 517.893 175.758 517.893 177.182Z" fill="#98A2B3"/>
</g>
<g filter="url(#filter1_d_846_1628)">
<g clip-path="url(#clip0_846_1628)">
<rect x="17" y="241" width="548" height="249" rx="12" fill="white"/>
<path d="M38.076 454.818H39.6072V462.037C39.6072 462.69 39.478 463.248 39.2195 463.712C38.9643 464.176 38.6046 464.531 38.1406 464.776C37.6766 465.018 37.133 465.139 36.5099 465.139C35.9366 465.139 35.4212 465.035 34.9638 464.826C34.5097 464.617 34.1501 464.314 33.8849 463.916C33.6231 463.515 33.4922 463.028 33.4922 462.455H35.0185C35.0185 462.736 35.0831 462.98 35.2124 463.185C35.3449 463.391 35.5256 463.552 35.7543 463.668C35.9863 463.78 36.2514 463.837 36.5497 463.837C36.8745 463.837 37.1496 463.769 37.375 463.633C37.6037 463.494 37.7777 463.29 37.897 463.021C38.0163 462.753 38.076 462.425 38.076 462.037V454.818ZM43.9462 465.169C43.4623 465.169 43.0248 465.08 42.6337 464.901C42.2426 464.718 41.9327 464.455 41.704 464.11C41.4786 463.765 41.3659 463.343 41.3659 462.842C41.3659 462.411 41.4488 462.057 41.6145 461.778C41.7802 461.5 42.004 461.28 42.2857 461.117C42.5674 460.955 42.8823 460.832 43.2303 460.749C43.5783 460.666 43.9329 460.603 44.2942 460.56C44.7516 460.507 45.1228 460.464 45.4078 460.431C45.6929 460.395 45.9 460.337 46.0293 460.257C46.1586 460.178 46.2232 460.048 46.2232 459.869V459.835C46.2232 459.4 46.1006 459.064 45.8553 458.825C45.6133 458.587 45.2521 458.467 44.7715 458.467C44.271 458.467 43.8766 458.578 43.5882 458.8C43.3032 459.019 43.106 459.263 42.9966 459.531L41.5996 459.213C41.7653 458.749 42.0073 458.375 42.3255 458.089C42.647 457.801 43.0165 457.592 43.4341 457.463C43.8517 457.33 44.2909 457.264 44.7516 457.264C45.0565 457.264 45.3797 457.301 45.7211 457.374C46.0658 457.443 46.3873 457.572 46.6855 457.761C46.9872 457.95 47.2341 458.22 47.4263 458.572C47.6185 458.92 47.7147 459.372 47.7147 459.929V465H46.263V463.956H46.2033C46.1072 464.148 45.963 464.337 45.7708 464.523C45.5785 464.708 45.3316 464.862 45.03 464.985C44.7284 465.108 44.3671 465.169 43.9462 465.169ZM44.2694 463.976C44.6803 463.976 45.0317 463.895 45.3233 463.732C45.6183 463.57 45.842 463.358 45.9945 463.096C46.1503 462.831 46.2282 462.547 46.2282 462.246V461.261C46.1751 461.314 46.0724 461.364 45.9199 461.411C45.7708 461.454 45.6001 461.492 45.4078 461.525C45.2156 461.555 45.0284 461.583 44.8461 461.609C44.6638 461.633 44.5113 461.652 44.3887 461.669C44.1003 461.705 43.8368 461.767 43.5982 461.853C43.3629 461.939 43.1739 462.063 43.0314 462.226C42.8922 462.385 42.8226 462.597 42.8226 462.862C42.8226 463.23 42.9585 463.509 43.2303 463.697C43.5021 463.883 43.8484 463.976 44.2694 463.976ZM51.1811 460.466V465H49.6946V457.364H51.1214V458.607H51.2159C51.3916 458.202 51.6667 457.877 52.0412 457.632C52.419 457.387 52.8946 457.264 53.468 457.264C53.9884 457.264 54.4441 457.374 54.8352 457.592C55.2263 457.808 55.5296 458.129 55.745 458.557C55.9605 458.984 56.0682 459.513 56.0682 460.143V465H54.5817V460.322C54.5817 459.768 54.4375 459.336 54.1491 459.024C53.8608 458.709 53.4647 458.552 52.9609 458.552C52.6162 458.552 52.3097 458.626 52.0412 458.776C51.776 458.925 51.5656 459.143 51.4098 459.432C51.2573 459.717 51.1811 460.062 51.1811 460.466Z" fill="#667085"/>
<path d="M90.6741 465V454.818H96.9881V456.141H92.2104V459.243H96.5357V460.56H92.2104V465H90.6741ZM101.489 465.154C100.736 465.154 100.088 464.993 99.5447 464.672C99.0045 464.347 98.5869 463.891 98.2919 463.305C98.0002 462.715 97.8544 462.024 97.8544 461.232C97.8544 460.449 98.0002 459.76 98.2919 459.163C98.5869 458.567 98.9978 458.101 99.5248 457.766C100.055 457.432 100.675 457.264 101.384 457.264C101.815 457.264 102.233 457.335 102.637 457.478C103.041 457.621 103.404 457.844 103.726 458.149C104.047 458.454 104.301 458.85 104.486 459.337C104.672 459.821 104.765 460.41 104.765 461.102V461.629H98.6946V460.516H103.308C103.308 460.125 103.229 459.778 103.07 459.477C102.91 459.172 102.687 458.931 102.398 458.756C102.113 458.58 101.779 458.492 101.394 458.492C100.977 458.492 100.612 458.595 100.3 458.8C99.9922 459.003 99.7535 459.268 99.5845 459.596C99.4188 459.921 99.3359 460.274 99.3359 460.655V461.525C99.3359 462.035 99.4254 462.469 99.6044 462.827C99.7867 463.185 100.04 463.459 100.365 463.648C100.69 463.833 101.069 463.926 101.504 463.926C101.785 463.926 102.042 463.886 102.274 463.807C102.506 463.724 102.707 463.601 102.876 463.439C103.045 463.277 103.174 463.076 103.263 462.837L104.67 463.091C104.558 463.505 104.356 463.868 104.064 464.18C103.776 464.488 103.413 464.728 102.975 464.901C102.541 465.07 102.045 465.154 101.489 465.154ZM106.534 465V454.818H108.02V458.602H108.11C108.196 458.442 108.32 458.259 108.482 458.05C108.645 457.841 108.87 457.659 109.159 457.503C109.447 457.344 109.828 457.264 110.302 457.264C110.918 457.264 111.469 457.42 111.953 457.732C112.436 458.043 112.816 458.492 113.091 459.079C113.369 459.665 113.509 460.371 113.509 461.197C113.509 462.022 113.371 462.73 113.096 463.32C112.821 463.906 112.443 464.359 111.963 464.677C111.482 464.992 110.933 465.149 110.317 465.149C109.853 465.149 109.473 465.071 109.178 464.915C108.887 464.76 108.658 464.577 108.492 464.369C108.327 464.16 108.199 463.974 108.11 463.812H107.985V465H106.534ZM107.99 461.182C107.99 461.719 108.068 462.189 108.224 462.594C108.38 462.998 108.605 463.315 108.9 463.543C109.195 463.769 109.556 463.881 109.984 463.881C110.428 463.881 110.799 463.764 111.097 463.528C111.396 463.29 111.621 462.967 111.774 462.559C111.929 462.151 112.007 461.692 112.007 461.182C112.007 460.678 111.931 460.226 111.779 459.825C111.629 459.424 111.404 459.107 111.102 458.875C110.804 458.643 110.431 458.527 109.984 458.527C109.553 458.527 109.188 458.638 108.89 458.86C108.595 459.082 108.371 459.392 108.219 459.79C108.066 460.187 107.99 460.652 107.99 461.182Z" fill="#667085"/>
<path d="M147.23 454.818H149.094L152.336 462.733H152.455L155.696 454.818H157.561V465H156.099V457.632H156.005L153.002 464.985H151.789L148.786 457.627H148.691V465H147.23V454.818ZM161.897 465.169C161.413 465.169 160.976 465.08 160.585 464.901C160.194 464.718 159.884 464.455 159.655 464.11C159.43 463.765 159.317 463.343 159.317 462.842C159.317 462.411 159.4 462.057 159.565 461.778C159.731 461.5 159.955 461.28 160.237 461.117C160.518 460.955 160.833 460.832 161.181 460.749C161.529 460.666 161.884 460.603 162.245 460.56C162.703 460.507 163.074 460.464 163.359 460.431C163.644 460.395 163.851 460.337 163.98 460.257C164.11 460.178 164.174 460.048 164.174 459.869V459.835C164.174 459.4 164.052 459.064 163.806 458.825C163.564 458.587 163.203 458.467 162.722 458.467C162.222 458.467 161.828 458.578 161.539 458.8C161.254 459.019 161.057 459.263 160.948 459.531L159.551 459.213C159.716 458.749 159.958 458.375 160.276 458.089C160.598 457.801 160.967 457.592 161.385 457.463C161.803 457.33 162.242 457.264 162.703 457.264C163.007 457.264 163.331 457.301 163.672 457.374C164.017 457.443 164.338 457.572 164.637 457.761C164.938 457.95 165.185 458.22 165.377 458.572C165.57 458.92 165.666 459.372 165.666 459.929V465H164.214V463.956H164.154C164.058 464.148 163.914 464.337 163.722 464.523C163.529 464.708 163.283 464.862 162.981 464.985C162.679 465.108 162.318 465.169 161.897 465.169ZM162.22 463.976C162.631 463.976 162.983 463.895 163.274 463.732C163.569 463.57 163.793 463.358 163.945 463.096C164.101 462.831 164.179 462.547 164.179 462.246V461.261C164.126 461.314 164.023 461.364 163.871 461.411C163.722 461.454 163.551 461.492 163.359 461.525C163.167 461.555 162.979 461.583 162.797 461.609C162.615 461.633 162.462 461.652 162.34 461.669C162.051 461.705 161.788 461.767 161.549 461.853C161.314 461.939 161.125 462.063 160.982 462.226C160.843 462.385 160.774 462.597 160.774 462.862C160.774 463.23 160.909 463.509 161.181 463.697C161.453 463.883 161.799 463.976 162.22 463.976ZM167.646 465V457.364H169.082V458.577H169.162C169.301 458.166 169.546 457.843 169.898 457.607C170.252 457.369 170.653 457.249 171.101 457.249C171.194 457.249 171.303 457.253 171.429 457.259C171.558 457.266 171.659 457.274 171.732 457.284V458.706C171.673 458.689 171.566 458.671 171.414 458.651C171.262 458.628 171.109 458.616 170.957 458.616C170.605 458.616 170.292 458.691 170.017 458.84C169.745 458.986 169.53 459.19 169.371 459.452C169.212 459.71 169.132 460.005 169.132 460.337V465H167.646Z" fill="#667085"/>
<path d="M205.645 465H204.015L207.679 454.818H209.454L213.118 465H211.487L208.608 456.668H208.529L205.645 465ZM205.919 461.013H211.209V462.305H205.919V461.013ZM214.469 467.864V457.364H215.92V458.602H216.045C216.131 458.442 216.255 458.259 216.418 458.05C216.58 457.841 216.805 457.659 217.094 457.503C217.382 457.344 217.763 457.264 218.237 457.264C218.854 457.264 219.404 457.42 219.888 457.732C220.372 458.043 220.751 458.492 221.026 459.079C221.305 459.665 221.444 460.371 221.444 461.197C221.444 462.022 221.306 462.73 221.031 463.32C220.756 463.906 220.378 464.359 219.898 464.677C219.417 464.992 218.869 465.149 218.252 465.149C217.788 465.149 217.409 465.071 217.114 464.915C216.822 464.76 216.593 464.577 216.428 464.369C216.262 464.16 216.134 463.974 216.045 463.812H215.955V467.864H214.469ZM215.925 461.182C215.925 461.719 216.003 462.189 216.159 462.594C216.315 462.998 216.54 463.315 216.835 463.543C217.13 463.769 217.491 463.881 217.919 463.881C218.363 463.881 218.734 463.764 219.033 463.528C219.331 463.29 219.556 462.967 219.709 462.559C219.865 462.151 219.942 461.692 219.942 461.182C219.942 460.678 219.866 460.226 219.714 459.825C219.565 459.424 219.339 459.107 219.038 458.875C218.739 458.643 218.366 458.527 217.919 458.527C217.488 458.527 217.124 458.638 216.825 458.86C216.53 459.082 216.307 459.392 216.154 459.79C216.002 460.187 215.925 460.652 215.925 461.182ZM223.109 465V457.364H224.546V458.577H224.626C224.765 458.166 225.01 457.843 225.361 457.607C225.716 457.369 226.117 457.249 226.565 457.249C226.657 457.249 226.767 457.253 226.893 457.259C227.022 457.266 227.123 457.274 227.196 457.284V458.706C227.136 458.689 227.03 458.671 226.878 458.651C226.725 458.628 226.573 458.616 226.42 458.616C226.069 458.616 225.756 458.691 225.481 458.84C225.209 458.986 224.994 459.19 224.834 459.452C224.675 459.71 224.596 460.005 224.596 460.337V465H223.109Z" fill="#667085"/>
<path d="M260.341 454.818H262.205L265.447 462.733H265.566L268.807 454.818H270.672V465H269.21V457.632H269.116L266.113 464.985H264.9L261.897 457.627H261.802V465H260.341V454.818ZM275.008 465.169C274.524 465.169 274.087 465.08 273.696 464.901C273.305 464.718 272.995 464.455 272.766 464.11C272.541 463.765 272.428 463.343 272.428 462.842C272.428 462.411 272.511 462.057 272.677 461.778C272.842 461.5 273.066 461.28 273.348 461.117C273.629 460.955 273.944 460.832 274.292 460.749C274.64 460.666 274.995 460.603 275.356 460.56C275.814 460.507 276.185 460.464 276.47 460.431C276.755 460.395 276.962 460.337 277.091 460.257C277.221 460.178 277.285 460.048 277.285 459.869V459.835C277.285 459.4 277.163 459.064 276.917 458.825C276.675 458.587 276.314 458.467 275.834 458.467C275.333 458.467 274.939 458.578 274.65 458.8C274.365 459.019 274.168 459.263 274.059 459.531L272.662 459.213C272.827 458.749 273.069 458.375 273.388 458.089C273.709 457.801 274.079 457.592 274.496 457.463C274.914 457.33 275.353 457.264 275.814 457.264C276.119 457.264 276.442 457.301 276.783 457.374C277.128 457.443 277.449 457.572 277.748 457.761C278.049 457.95 278.296 458.22 278.488 458.572C278.681 458.92 278.777 459.372 278.777 459.929V465H277.325V463.956H277.265C277.169 464.148 277.025 464.337 276.833 464.523C276.641 464.708 276.394 464.862 276.092 464.985C275.79 465.108 275.429 465.169 275.008 465.169ZM275.331 463.976C275.742 463.976 276.094 463.895 276.385 463.732C276.68 463.57 276.904 463.358 277.057 463.096C277.212 462.831 277.29 462.547 277.29 462.246V461.261C277.237 461.314 277.134 461.364 276.982 461.411C276.833 461.454 276.662 461.492 276.47 461.525C276.278 461.555 276.09 461.583 275.908 461.609C275.726 461.633 275.573 461.652 275.451 461.669C275.162 461.705 274.899 461.767 274.66 461.853C274.425 461.939 274.236 462.063 274.094 462.226C273.954 462.385 273.885 462.597 273.885 462.862C273.885 463.23 274.021 463.509 274.292 463.697C274.564 463.883 274.91 463.976 275.331 463.976ZM281.423 467.864C281.201 467.864 280.999 467.845 280.816 467.809C280.634 467.776 280.498 467.739 280.409 467.7L280.767 466.482C281.038 466.554 281.28 466.586 281.492 466.576C281.705 466.566 281.892 466.487 282.054 466.337C282.22 466.188 282.366 465.945 282.492 465.607L282.676 465.099L279.882 457.364H281.473L283.407 463.29H283.486L285.42 457.364H287.016L283.869 466.019C283.723 466.417 283.537 466.753 283.312 467.028C283.087 467.307 282.818 467.516 282.507 467.655C282.195 467.794 281.834 467.864 281.423 467.864Z" fill="#667085"/>
<path d="M324.854 454.818H326.385V462.037C326.385 462.69 326.256 463.248 325.997 463.712C325.742 464.176 325.382 464.531 324.918 464.776C324.454 465.018 323.911 465.139 323.288 465.139C322.714 465.139 322.199 465.035 321.742 464.826C321.287 464.617 320.928 464.314 320.663 463.916C320.401 463.515 320.27 463.028 320.27 462.455H321.796C321.796 462.736 321.861 462.98 321.99 463.185C322.123 463.391 322.303 463.552 322.532 463.668C322.764 463.78 323.029 463.837 323.327 463.837C323.652 463.837 323.927 463.769 324.153 463.633C324.381 463.494 324.555 463.29 324.675 463.021C324.794 462.753 324.854 462.425 324.854 462.037V454.818ZM333.339 461.833V457.364H334.831V465H333.369V463.678H333.289C333.114 464.085 332.832 464.425 332.444 464.697C332.06 464.965 331.581 465.099 331.007 465.099C330.517 465.099 330.083 464.992 329.705 464.776C329.33 464.558 329.035 464.234 328.82 463.807C328.608 463.379 328.502 462.851 328.502 462.221V457.364H329.988V462.042C329.988 462.562 330.132 462.977 330.421 463.285C330.709 463.593 331.084 463.747 331.544 463.747C331.823 463.747 332.099 463.678 332.375 463.538C332.653 463.399 332.883 463.189 333.066 462.907C333.251 462.625 333.342 462.267 333.339 461.833ZM338.314 460.466V465H336.828V457.364H338.255V458.607H338.349C338.525 458.202 338.8 457.877 339.174 457.632C339.552 457.387 340.028 457.264 340.601 457.264C341.122 457.264 341.577 457.374 341.968 457.592C342.36 457.808 342.663 458.129 342.878 458.557C343.094 458.984 343.201 459.513 343.201 460.143V465H341.715V460.322C341.715 459.768 341.571 459.336 341.282 459.024C340.994 458.709 340.598 458.552 340.094 458.552C339.749 458.552 339.443 458.626 339.174 458.776C338.909 458.925 338.699 459.143 338.543 459.432C338.391 459.717 338.314 460.062 338.314 460.466Z" fill="#667085"/>
<path d="M381.409 454.818H382.941V462.037C382.941 462.69 382.811 463.248 382.553 463.712C382.298 464.176 381.938 464.531 381.474 464.776C381.01 465.018 380.466 465.139 379.843 465.139C379.27 465.139 378.754 465.035 378.297 464.826C377.843 464.617 377.483 464.314 377.218 463.916C376.956 463.515 376.826 463.028 376.826 462.455H378.352C378.352 462.736 378.416 462.98 378.546 463.185C378.678 463.391 378.859 463.552 379.088 463.668C379.32 463.78 379.585 463.837 379.883 463.837C380.208 463.837 380.483 463.769 380.708 463.633C380.937 463.494 381.111 463.29 381.23 463.021C381.35 462.753 381.409 462.425 381.409 462.037V454.818ZM389.895 461.833V457.364H391.386V465H389.924V463.678H389.845C389.669 464.085 389.387 464.425 389 464.697C388.615 464.965 388.136 465.099 387.563 465.099C387.072 465.099 386.638 464.992 386.26 464.776C385.886 464.558 385.591 464.234 385.375 463.807C385.163 463.379 385.057 462.851 385.057 462.221V457.364H386.544V462.042C386.544 462.562 386.688 462.977 386.976 463.285C387.265 463.593 387.639 463.747 388.1 463.747C388.378 463.747 388.655 463.678 388.93 463.538C389.208 463.399 389.439 463.189 389.621 462.907C389.807 462.625 389.898 462.267 389.895 461.833ZM394.87 454.818V465H393.383V454.818H394.87ZM397.809 467.864C397.587 467.864 397.385 467.845 397.203 467.809C397.021 467.776 396.885 467.739 396.795 467.7L397.153 466.482C397.425 466.554 397.667 466.586 397.879 466.576C398.091 466.566 398.278 466.487 398.441 466.337C398.606 466.188 398.752 465.945 398.878 465.607L399.062 465.099L396.268 457.364H397.859L399.793 463.29H399.873L401.807 457.364H403.402L400.255 466.019C400.11 466.417 399.924 466.753 399.699 467.028C399.473 467.307 399.205 467.516 398.893 467.655C398.582 467.794 398.22 467.864 397.809 467.864Z" fill="#667085"/>
<path d="M437.868 465H436.237L439.901 454.818H441.676L445.34 465H443.709L440.831 456.668H440.751L437.868 465ZM438.141 461.013H443.431V462.305H438.141V461.013ZM451.528 461.833V457.364H453.02V465H451.558V463.678H451.479C451.303 464.085 451.021 464.425 450.633 464.697C450.249 464.965 449.77 465.099 449.197 465.099C448.706 465.099 448.272 464.992 447.894 464.776C447.519 464.558 447.224 464.234 447.009 463.807C446.797 463.379 446.691 462.851 446.691 462.221V457.364H448.177V462.042C448.177 462.562 448.322 462.977 448.61 463.285C448.898 463.593 449.273 463.747 449.733 463.747C450.012 463.747 450.289 463.678 450.564 463.538C450.842 463.399 451.073 463.189 451.255 462.907C451.44 462.625 451.532 462.267 451.528 461.833ZM458.219 468.023C457.612 468.023 457.09 467.943 456.653 467.784C456.219 467.625 455.864 467.415 455.589 467.153C455.314 466.891 455.108 466.604 454.972 466.293L456.25 465.766C456.339 465.911 456.459 466.066 456.608 466.228C456.76 466.394 456.966 466.535 457.224 466.651C457.486 466.767 457.823 466.825 458.234 466.825C458.797 466.825 459.263 466.687 459.631 466.412C459.999 466.14 460.183 465.706 460.183 465.109V463.608H460.088C459.999 463.77 459.869 463.951 459.7 464.15C459.535 464.349 459.306 464.521 459.014 464.667C458.723 464.813 458.343 464.886 457.876 464.886C457.272 464.886 456.729 464.745 456.245 464.463C455.764 464.178 455.383 463.759 455.102 463.205C454.823 462.648 454.684 461.964 454.684 461.152C454.684 460.34 454.822 459.644 455.097 459.064C455.375 458.484 455.756 458.04 456.24 457.732C456.724 457.42 457.272 457.264 457.886 457.264C458.36 457.264 458.742 457.344 459.034 457.503C459.326 457.659 459.553 457.841 459.715 458.05C459.881 458.259 460.009 458.442 460.098 458.602H460.207V457.364H461.664V465.169C461.664 465.825 461.512 466.364 461.207 466.785C460.902 467.206 460.489 467.517 459.969 467.719C459.452 467.922 458.868 468.023 458.219 468.023ZM458.204 463.653C458.631 463.653 458.993 463.553 459.288 463.354C459.586 463.152 459.811 462.864 459.964 462.489C460.12 462.112 460.197 461.659 460.197 461.132C460.197 460.618 460.121 460.166 459.969 459.775C459.816 459.384 459.593 459.079 459.298 458.86C459.003 458.638 458.638 458.527 458.204 458.527C457.756 458.527 457.384 458.643 457.085 458.875C456.787 459.104 456.562 459.415 456.409 459.81C456.26 460.204 456.185 460.645 456.185 461.132C456.185 461.633 456.262 462.072 456.414 462.45C456.567 462.827 456.792 463.122 457.09 463.335C457.392 463.547 457.763 463.653 458.204 463.653Z" fill="#667085"/>
<path d="M501.116 457.493C501.063 457.022 500.844 456.658 500.46 456.399C500.076 456.137 499.592 456.006 499.008 456.006C498.591 456.006 498.229 456.073 497.925 456.205C497.62 456.335 497.383 456.513 497.214 456.742C497.048 456.968 496.965 457.224 496.965 457.513C496.965 457.755 497.021 457.964 497.134 458.139C497.25 458.315 497.401 458.462 497.586 458.582C497.775 458.698 497.978 458.795 498.193 458.875C498.408 458.951 498.616 459.014 498.814 459.064L499.809 459.322C500.134 459.402 500.467 459.51 500.808 459.646C501.149 459.781 501.466 459.96 501.758 460.183C502.049 460.405 502.285 460.68 502.464 461.008C502.646 461.336 502.737 461.729 502.737 462.186C502.737 462.763 502.588 463.275 502.29 463.722C501.995 464.17 501.565 464.523 501.002 464.781C500.442 465.04 499.764 465.169 498.969 465.169C498.206 465.169 497.547 465.048 496.99 464.806C496.433 464.564 495.997 464.221 495.682 463.777C495.367 463.33 495.193 462.799 495.16 462.186H496.701C496.731 462.554 496.851 462.861 497.059 463.106C497.272 463.348 497.542 463.528 497.87 463.648C498.201 463.764 498.564 463.822 498.959 463.822C499.393 463.822 499.779 463.754 500.117 463.618C500.458 463.479 500.727 463.286 500.922 463.041C501.118 462.793 501.216 462.503 501.216 462.171C501.216 461.87 501.13 461.623 500.957 461.43C500.788 461.238 500.558 461.079 500.266 460.953C499.978 460.827 499.651 460.716 499.287 460.62L498.084 460.292C497.268 460.07 496.622 459.743 496.145 459.312C495.671 458.882 495.434 458.312 495.434 457.602C495.434 457.016 495.593 456.504 495.911 456.066C496.229 455.629 496.66 455.289 497.204 455.047C497.747 454.802 498.36 454.679 499.043 454.679C499.733 454.679 500.341 454.8 500.868 455.042C501.398 455.284 501.816 455.617 502.121 456.041C502.425 456.462 502.585 456.946 502.598 457.493H501.116ZM507.745 465.154C506.992 465.154 506.344 464.993 505.801 464.672C505.261 464.347 504.843 463.891 504.548 463.305C504.256 462.715 504.11 462.024 504.11 461.232C504.11 460.449 504.256 459.76 504.548 459.163C504.843 458.567 505.254 458.101 505.781 457.766C506.311 457.432 506.931 457.264 507.64 457.264C508.071 457.264 508.489 457.335 508.893 457.478C509.297 457.621 509.66 457.844 509.982 458.149C510.303 458.454 510.557 458.85 510.743 459.337C510.928 459.821 511.021 460.41 511.021 461.102V461.629H504.951V460.516H509.564C509.564 460.125 509.485 459.778 509.326 459.477C509.167 459.172 508.943 458.931 508.654 458.756C508.369 458.58 508.035 458.492 507.65 458.492C507.233 458.492 506.868 458.595 506.556 458.8C506.248 459.003 506.01 459.268 505.841 459.596C505.675 459.921 505.592 460.274 505.592 460.655V461.525C505.592 462.035 505.681 462.469 505.86 462.827C506.043 463.185 506.296 463.459 506.621 463.648C506.946 463.833 507.325 463.926 507.76 463.926C508.041 463.926 508.298 463.886 508.53 463.807C508.762 463.724 508.963 463.601 509.132 463.439C509.301 463.277 509.43 463.076 509.52 462.837L510.926 463.091C510.814 463.505 510.612 463.868 510.32 464.18C510.032 464.488 509.669 464.728 509.231 464.901C508.797 465.07 508.301 465.154 507.745 465.154ZM512.67 467.864V457.364H514.122V458.602H514.246C514.332 458.442 514.457 458.259 514.619 458.05C514.782 457.841 515.007 457.659 515.295 457.503C515.584 457.344 515.965 457.264 516.439 457.264C517.055 457.264 517.605 457.42 518.089 457.732C518.573 458.043 518.953 458.492 519.228 459.079C519.506 459.665 519.645 460.371 519.645 461.197C519.645 462.022 519.508 462.73 519.233 463.32C518.958 463.906 518.58 464.359 518.099 464.677C517.619 464.992 517.07 465.149 516.454 465.149C515.99 465.149 515.61 465.071 515.315 464.915C515.023 464.76 514.795 464.577 514.629 464.369C514.463 464.16 514.336 463.974 514.246 463.812H514.157V467.864H512.67ZM514.127 461.182C514.127 461.719 514.205 462.189 514.361 462.594C514.516 462.998 514.742 463.315 515.037 463.543C515.332 463.769 515.693 463.881 516.121 463.881C516.565 463.881 516.936 463.764 517.234 463.528C517.532 463.29 517.758 462.967 517.91 462.559C518.066 462.151 518.144 461.692 518.144 461.182C518.144 460.678 518.068 460.226 517.915 459.825C517.766 459.424 517.541 459.107 517.239 458.875C516.941 458.643 516.568 458.527 516.121 458.527C515.69 458.527 515.325 458.638 515.027 458.86C514.732 459.082 514.508 459.392 514.356 459.79C514.203 460.187 514.127 460.652 514.127 461.182Z" fill="#667085"/>
<path d="M561.963 459.909C561.963 460.996 561.764 461.931 561.366 462.713C560.969 463.492 560.423 464.092 559.731 464.513C559.041 464.93 558.258 465.139 557.379 465.139C556.498 465.139 555.71 464.93 555.018 464.513C554.328 464.092 553.785 463.49 553.387 462.708C552.989 461.926 552.79 460.993 552.79 459.909C552.79 458.822 552.989 457.889 553.387 457.11C553.785 456.328 554.328 455.728 555.018 455.31C555.71 454.889 556.498 454.679 557.379 454.679C558.258 454.679 559.041 454.889 559.731 455.31C560.423 455.728 560.969 456.328 561.366 457.11C561.764 457.889 561.963 458.822 561.963 459.909ZM560.442 459.909C560.442 459.08 560.307 458.383 560.039 457.816C559.774 457.246 559.409 456.815 558.945 456.523C558.485 456.228 557.963 456.081 557.379 456.081C556.793 456.081 556.269 456.228 555.808 456.523C555.347 456.815 554.983 457.246 554.714 457.816C554.449 458.383 554.317 459.08 554.317 459.909C554.317 460.738 554.449 461.437 554.714 462.007C554.983 462.574 555.347 463.005 555.808 463.3C556.269 463.591 556.793 463.737 557.379 463.737C557.963 463.737 558.485 463.591 558.945 463.3C559.409 463.005 559.774 462.574 560.039 462.007C560.307 461.437 560.442 460.738 560.442 459.909ZM566.976 465.154C566.237 465.154 565.6 464.987 565.067 464.652C564.536 464.314 564.129 463.848 563.844 463.255C563.558 462.662 563.416 461.982 563.416 461.217C563.416 460.441 563.562 459.757 563.853 459.163C564.145 458.567 564.556 458.101 565.086 457.766C565.617 457.432 566.241 457.264 566.961 457.264C567.541 457.264 568.058 457.372 568.512 457.587C568.966 457.799 569.332 458.098 569.611 458.482C569.892 458.867 570.06 459.316 570.113 459.83H568.666C568.586 459.472 568.404 459.163 568.119 458.905C567.837 458.646 567.46 458.517 566.986 458.517C566.571 458.517 566.208 458.626 565.897 458.845C565.589 459.061 565.348 459.369 565.176 459.77C565.004 460.168 564.917 460.638 564.917 461.182C564.917 461.739 565.002 462.219 565.171 462.624C565.34 463.028 565.579 463.341 565.887 463.563C566.198 463.785 566.565 463.896 566.986 463.896C567.267 463.896 567.522 463.845 567.751 463.742C567.983 463.636 568.177 463.485 568.333 463.29C568.492 463.094 568.603 462.859 568.666 462.584H570.113C570.06 463.078 569.899 463.518 569.63 463.906C569.362 464.294 569.002 464.599 568.552 464.821C568.104 465.043 567.579 465.154 566.976 465.154ZM575.267 457.364V458.557H571.096V457.364H575.267ZM572.214 455.534H573.701V462.758C573.701 463.046 573.744 463.263 573.83 463.409C573.916 463.552 574.027 463.649 574.163 463.702C574.302 463.752 574.453 463.777 574.616 463.777C574.735 463.777 574.839 463.769 574.929 463.752C575.018 463.736 575.088 463.722 575.138 463.712L575.406 464.94C575.32 464.973 575.197 465.007 575.038 465.04C574.879 465.076 574.68 465.096 574.442 465.099C574.051 465.106 573.686 465.036 573.348 464.891C573.01 464.745 572.736 464.519 572.528 464.214C572.319 463.91 572.214 463.527 572.214 463.066V455.534Z" fill="#667085"/>
<rect x="33" y="434" width="25" height="16" rx="3" fill="#EBFABE"/>
<rect x="89" y="434" width="25" height="16" rx="3" fill="#EBFABE"/>
<rect x="146" y="434" width="25" height="16" rx="3" fill="#EBFABE"/>
<rect x="203" y="434" width="25" height="16" rx="3" fill="#EBFABE"/>
<rect x="260" y="415" width="25" height="35" rx="3" fill="#EBFABE"/>
<rect x="320" y="362" width="25" height="88" rx="3" fill="#EBFABE"/>
<rect x="376" y="331" width="25" height="119" rx="3" fill="#EBFABE"/>
<rect x="436" y="305" width="25" height="145" rx="3" fill="#EBFABE"/>
<rect x="494" y="281" width="25" height="169" rx="3" fill="#EBFABE"/>
<rect x="550" y="281" width="25" height="169" rx="3" fill="#EBFABE"/>
<path d="M36 426L218.685 415L249.572 412.207C269.359 410.417 289.307 412.238 308.444 417.581L340.967 426.661C365.325 433.461 390.927 434.536 415.769 429.802L611.5 392.5" stroke="#FDB022" stroke-width="2" stroke-dasharray="8 8"/>
<path d="M39.5 380L99 401L163.5 380L230 401L279.5 363L356 380L437.5 336L576.5 328.5" stroke="#577B14" stroke-width="2" stroke-linecap="round"/>
<circle cx="38" cy="270" r="4" fill="#EBFABE"/>
<path d="M56.6705 264.364V276H55.0568L49.142 267.466H49.0341V276H47.2784V264.364H48.9034L54.8239 272.909H54.9318V264.364H56.6705ZM69.3395 270.182C69.3395 271.424 69.1122 272.492 68.6577 273.386C68.2031 274.277 67.58 274.962 66.7884 275.443C66.0005 275.92 65.1046 276.159 64.1009 276.159C63.0933 276.159 62.1937 275.92 61.402 275.443C60.6141 274.962 59.9929 274.275 59.5384 273.381C59.0838 272.487 58.8565 271.42 58.8565 270.182C58.8565 268.939 59.0838 267.873 59.5384 266.983C59.9929 266.089 60.6141 265.403 61.402 264.926C62.1937 264.445 63.0933 264.205 64.1009 264.205C65.1046 264.205 66.0005 264.445 66.7884 264.926C67.58 265.403 68.2031 266.089 68.6577 266.983C69.1122 267.873 69.3395 268.939 69.3395 270.182ZM67.6009 270.182C67.6009 269.235 67.4474 268.437 67.1406 267.79C66.8376 267.138 66.4209 266.646 65.8906 266.312C65.3641 265.975 64.7675 265.807 64.1009 265.807C63.4304 265.807 62.8319 265.975 62.3054 266.312C61.7789 266.646 61.3622 267.138 61.0554 267.79C60.7524 268.437 60.6009 269.235 60.6009 270.182C60.6009 271.129 60.7524 271.928 61.0554 272.58C61.3622 273.227 61.7789 273.72 62.3054 274.057C62.8319 274.39 63.4304 274.557 64.1009 274.557C64.7675 274.557 65.3641 274.39 65.8906 274.057C66.4209 273.72 66.8376 273.227 67.1406 272.58C67.4474 271.928 67.6009 271.129 67.6009 270.182ZM73.2841 264.364V276H71.5284V264.364H73.2841ZM81.0923 264.364L84.331 273.841H84.4616L87.7003 264.364H89.598L85.4105 276H83.3821L79.1946 264.364H81.0923ZM92.8224 276.193C92.2694 276.193 91.7694 276.091 91.3224 275.886C90.8755 275.678 90.5213 275.377 90.2599 274.983C90.0024 274.589 89.8736 274.106 89.8736 273.534C89.8736 273.042 89.9683 272.636 90.1577 272.318C90.3471 272 90.6027 271.748 90.9247 271.562C91.2467 271.377 91.6065 271.237 92.0043 271.142C92.402 271.047 92.8073 270.975 93.2202 270.926C93.7429 270.866 94.1671 270.816 94.4929 270.778C94.8187 270.737 95.0554 270.67 95.2031 270.58C95.3509 270.489 95.4247 270.341 95.4247 270.136V270.097C95.4247 269.6 95.2846 269.216 95.0043 268.943C94.7277 268.67 94.3149 268.534 93.7656 268.534C93.1937 268.534 92.7429 268.661 92.4134 268.915C92.0876 269.165 91.8622 269.443 91.7372 269.75L90.1406 269.386C90.33 268.856 90.6065 268.428 90.9702 268.102C91.3376 267.773 91.7599 267.534 92.2372 267.386C92.7145 267.235 93.2164 267.159 93.7429 267.159C94.0914 267.159 94.4607 267.201 94.8509 267.284C95.2448 267.364 95.6122 267.511 95.9531 267.727C96.2978 267.943 96.58 268.252 96.7997 268.653C97.0194 269.051 97.1293 269.568 97.1293 270.205V276H95.4702V274.807H95.402C95.2921 275.027 95.1274 275.242 94.9077 275.455C94.688 275.667 94.4058 275.843 94.0611 275.983C93.7164 276.123 93.3035 276.193 92.8224 276.193ZM93.1918 274.83C93.6615 274.83 94.063 274.737 94.3963 274.551C94.7334 274.366 94.9891 274.123 95.1634 273.824C95.3414 273.521 95.4304 273.197 95.4304 272.852V271.727C95.3698 271.788 95.2524 271.845 95.0781 271.898C94.9077 271.947 94.7126 271.991 94.4929 272.028C94.2732 272.062 94.0592 272.095 93.8509 272.125C93.6425 272.152 93.4683 272.174 93.3281 272.193C92.9986 272.235 92.6974 272.305 92.4247 272.403C92.1558 272.502 91.9399 272.644 91.777 272.83C91.6179 273.011 91.5384 273.254 91.5384 273.557C91.5384 273.977 91.6937 274.295 92.0043 274.511C92.3149 274.723 92.7107 274.83 93.1918 274.83ZM99.392 276V267.273H101.034V268.659H101.125C101.284 268.189 101.564 267.82 101.966 267.551C102.371 267.278 102.83 267.142 103.341 267.142C103.447 267.142 103.572 267.146 103.716 267.153C103.864 267.161 103.979 267.17 104.062 267.182V268.807C103.994 268.788 103.873 268.767 103.699 268.744C103.525 268.718 103.35 268.705 103.176 268.705C102.775 268.705 102.417 268.79 102.102 268.96C101.792 269.127 101.545 269.36 101.364 269.659C101.182 269.955 101.091 270.292 101.091 270.67V276H99.392ZM105.533 276V267.273H107.232V276H105.533ZM106.391 265.926C106.095 265.926 105.841 265.828 105.629 265.631C105.421 265.43 105.317 265.191 105.317 264.915C105.317 264.634 105.421 264.396 105.629 264.199C105.841 263.998 106.095 263.898 106.391 263.898C106.686 263.898 106.938 263.998 107.146 264.199C107.358 264.396 107.464 264.634 107.464 264.915C107.464 265.191 107.358 265.43 107.146 265.631C106.938 265.828 106.686 265.926 106.391 265.926ZM112.057 276.193C111.504 276.193 111.004 276.091 110.557 275.886C110.11 275.678 109.756 275.377 109.494 274.983C109.237 274.589 109.108 274.106 109.108 273.534C109.108 273.042 109.203 272.636 109.392 272.318C109.581 272 109.837 271.748 110.159 271.562C110.481 271.377 110.841 271.237 111.239 271.142C111.636 271.047 112.042 270.975 112.455 270.926C112.977 270.866 113.402 270.816 113.727 270.778C114.053 270.737 114.29 270.67 114.438 270.58C114.585 270.489 114.659 270.341 114.659 270.136V270.097C114.659 269.6 114.519 269.216 114.239 268.943C113.962 268.67 113.549 268.534 113 268.534C112.428 268.534 111.977 268.661 111.648 268.915C111.322 269.165 111.097 269.443 110.972 269.75L109.375 269.386C109.564 268.856 109.841 268.428 110.205 268.102C110.572 267.773 110.994 267.534 111.472 267.386C111.949 267.235 112.451 267.159 112.977 267.159C113.326 267.159 113.695 267.201 114.085 267.284C114.479 267.364 114.847 267.511 115.188 267.727C115.532 267.943 115.814 268.252 116.034 268.653C116.254 269.051 116.364 269.568 116.364 270.205V276H114.705V274.807H114.636C114.527 275.027 114.362 275.242 114.142 275.455C113.922 275.667 113.64 275.843 113.295 275.983C112.951 276.123 112.538 276.193 112.057 276.193ZM112.426 274.83C112.896 274.83 113.297 274.737 113.631 274.551C113.968 274.366 114.223 274.123 114.398 273.824C114.576 273.521 114.665 273.197 114.665 272.852V271.727C114.604 271.788 114.487 271.845 114.312 271.898C114.142 271.947 113.947 271.991 113.727 272.028C113.508 272.062 113.294 272.095 113.085 272.125C112.877 272.152 112.703 272.174 112.562 272.193C112.233 272.235 111.932 272.305 111.659 272.403C111.39 272.502 111.174 272.644 111.011 272.83C110.852 273.011 110.773 273.254 110.773 273.557C110.773 273.977 110.928 274.295 111.239 274.511C111.549 274.723 111.945 274.83 112.426 274.83ZM120.325 270.818V276H118.626V267.273H120.257V268.693H120.365C120.566 268.231 120.88 267.86 121.308 267.58C121.74 267.299 122.284 267.159 122.939 267.159C123.534 267.159 124.054 267.284 124.501 267.534C124.948 267.78 125.295 268.148 125.541 268.636C125.787 269.125 125.911 269.729 125.911 270.449V276H124.212V270.653C124.212 270.021 124.047 269.527 123.717 269.17C123.388 268.811 122.935 268.631 122.359 268.631C121.965 268.631 121.615 268.716 121.308 268.886C121.005 269.057 120.765 269.307 120.587 269.636C120.412 269.962 120.325 270.356 120.325 270.818ZM131.865 276.176C131.02 276.176 130.293 275.985 129.683 275.602C129.077 275.216 128.611 274.684 128.286 274.006C127.96 273.328 127.797 272.551 127.797 271.676C127.797 270.79 127.964 270.008 128.297 269.33C128.63 268.648 129.1 268.116 129.706 267.733C130.312 267.35 131.026 267.159 131.848 267.159C132.511 267.159 133.102 267.282 133.621 267.528C134.14 267.771 134.558 268.112 134.876 268.551C135.198 268.991 135.39 269.504 135.45 270.091H133.797C133.706 269.682 133.498 269.33 133.172 269.034C132.85 268.739 132.418 268.591 131.876 268.591C131.403 268.591 130.988 268.716 130.632 268.966C130.28 269.212 130.005 269.564 129.808 270.023C129.611 270.477 129.513 271.015 129.513 271.636C129.513 272.273 129.609 272.822 129.803 273.284C129.996 273.746 130.268 274.104 130.621 274.358C130.977 274.612 131.395 274.739 131.876 274.739C132.198 274.739 132.49 274.68 132.751 274.562C133.017 274.441 133.238 274.269 133.416 274.045C133.598 273.822 133.725 273.553 133.797 273.239H135.45C135.39 273.803 135.206 274.307 134.899 274.75C134.592 275.193 134.181 275.542 133.666 275.795C133.155 276.049 132.554 276.176 131.865 276.176ZM141.028 276.176C140.169 276.176 139.428 275.992 138.807 275.625C138.189 275.254 137.712 274.733 137.375 274.062C137.042 273.388 136.875 272.598 136.875 271.693C136.875 270.799 137.042 270.011 137.375 269.33C137.712 268.648 138.182 268.116 138.784 267.733C139.39 267.35 140.098 267.159 140.909 267.159C141.402 267.159 141.879 267.241 142.341 267.403C142.803 267.566 143.218 267.822 143.585 268.17C143.953 268.519 144.242 268.972 144.455 269.528C144.667 270.081 144.773 270.754 144.773 271.545V272.148H137.835V270.875H143.108C143.108 270.428 143.017 270.032 142.835 269.688C142.653 269.339 142.398 269.064 142.068 268.864C141.742 268.663 141.36 268.562 140.92 268.562C140.443 268.562 140.027 268.68 139.67 268.915C139.318 269.146 139.045 269.449 138.852 269.824C138.663 270.195 138.568 270.598 138.568 271.034V272.028C138.568 272.612 138.67 273.108 138.875 273.517C139.083 273.926 139.373 274.239 139.744 274.455C140.116 274.667 140.549 274.773 141.045 274.773C141.367 274.773 141.661 274.727 141.926 274.636C142.191 274.542 142.42 274.402 142.614 274.216C142.807 274.03 142.955 273.801 143.057 273.528L144.665 273.818C144.536 274.292 144.305 274.706 143.972 275.062C143.642 275.415 143.227 275.689 142.727 275.886C142.231 276.08 141.665 276.176 141.028 276.176Z" fill="black"/>
<circle cx="167" cy="270" r="4" fill="#577B14"/>
<path d="M177.261 276H175.398L179.585 264.364H181.614L185.801 276H183.938L180.648 266.477H180.557L177.261 276ZM177.574 271.443H183.619V272.92H177.574V271.443ZM190.881 276.176C190.036 276.176 189.309 275.985 188.699 275.602C188.093 275.216 187.627 274.684 187.301 274.006C186.975 273.328 186.812 272.551 186.812 271.676C186.812 270.79 186.979 270.008 187.312 269.33C187.646 268.648 188.116 268.116 188.722 267.733C189.328 267.35 190.042 267.159 190.864 267.159C191.527 267.159 192.117 267.282 192.636 267.528C193.155 267.771 193.574 268.112 193.892 268.551C194.214 268.991 194.405 269.504 194.466 270.091H192.812C192.722 269.682 192.513 269.33 192.188 269.034C191.866 268.739 191.434 268.591 190.892 268.591C190.419 268.591 190.004 268.716 189.648 268.966C189.295 269.212 189.021 269.564 188.824 270.023C188.627 270.477 188.528 271.015 188.528 271.636C188.528 272.273 188.625 272.822 188.818 273.284C189.011 273.746 189.284 274.104 189.636 274.358C189.992 274.612 190.411 274.739 190.892 274.739C191.214 274.739 191.506 274.68 191.767 274.562C192.032 274.441 192.254 274.269 192.432 274.045C192.614 273.822 192.741 273.553 192.812 273.239H194.466C194.405 273.803 194.222 274.307 193.915 274.75C193.608 275.193 193.197 275.542 192.682 275.795C192.17 276.049 191.57 276.176 190.881 276.176ZM200.357 267.273V268.636H195.589V267.273H200.357ZM196.868 265.182H198.567V273.438C198.567 273.767 198.616 274.015 198.714 274.182C198.813 274.345 198.94 274.456 199.095 274.517C199.254 274.574 199.427 274.602 199.612 274.602C199.749 274.602 199.868 274.593 199.97 274.574C200.072 274.555 200.152 274.54 200.209 274.528L200.516 275.932C200.417 275.97 200.277 276.008 200.095 276.045C199.913 276.087 199.686 276.11 199.413 276.114C198.966 276.121 198.55 276.042 198.163 275.875C197.777 275.708 197.464 275.451 197.226 275.102C196.987 274.754 196.868 274.316 196.868 273.79V265.182ZM207.764 272.381V267.273H209.469V276H207.798V274.489H207.707C207.507 274.955 207.185 275.343 206.741 275.653C206.302 275.96 205.755 276.114 205.099 276.114C204.539 276.114 204.043 275.991 203.611 275.744C203.183 275.494 202.846 275.125 202.599 274.636C202.357 274.148 202.236 273.544 202.236 272.824V267.273H203.935V272.619C203.935 273.214 204.099 273.687 204.429 274.04C204.759 274.392 205.187 274.568 205.713 274.568C206.031 274.568 206.348 274.489 206.662 274.33C206.98 274.17 207.243 273.93 207.452 273.608C207.664 273.286 207.768 272.877 207.764 272.381ZM214.291 276.193C213.738 276.193 213.238 276.091 212.791 275.886C212.344 275.678 211.99 275.377 211.729 274.983C211.471 274.589 211.342 274.106 211.342 273.534C211.342 273.042 211.437 272.636 211.626 272.318C211.816 272 212.071 271.748 212.393 271.562C212.715 271.377 213.075 271.237 213.473 271.142C213.871 271.047 214.276 270.975 214.689 270.926C215.212 270.866 215.636 270.816 215.962 270.778C216.287 270.737 216.524 270.67 216.672 270.58C216.82 270.489 216.893 270.341 216.893 270.136V270.097C216.893 269.6 216.753 269.216 216.473 268.943C216.196 268.67 215.784 268.534 215.234 268.534C214.662 268.534 214.212 268.661 213.882 268.915C213.556 269.165 213.331 269.443 213.206 269.75L211.609 269.386C211.799 268.856 212.075 268.428 212.439 268.102C212.806 267.773 213.229 267.534 213.706 267.386C214.183 267.235 214.685 267.159 215.212 267.159C215.56 267.159 215.929 267.201 216.32 267.284C216.714 267.364 217.081 267.511 217.422 267.727C217.767 267.943 218.049 268.252 218.268 268.653C218.488 269.051 218.598 269.568 218.598 270.205V276H216.939V274.807H216.871C216.761 275.027 216.596 275.242 216.376 275.455C216.157 275.667 215.875 275.843 215.53 275.983C215.185 276.123 214.772 276.193 214.291 276.193ZM214.661 274.83C215.13 274.83 215.532 274.737 215.865 274.551C216.202 274.366 216.458 274.123 216.632 273.824C216.81 273.521 216.899 273.197 216.899 272.852V271.727C216.839 271.788 216.721 271.845 216.547 271.898C216.376 271.947 216.181 271.991 215.962 272.028C215.742 272.062 215.528 272.095 215.32 272.125C215.111 272.152 214.937 272.174 214.797 272.193C214.467 272.235 214.166 272.305 213.893 272.403C213.625 272.502 213.409 272.644 213.246 272.83C213.087 273.011 213.007 273.254 213.007 273.557C213.007 273.977 213.162 274.295 213.473 274.511C213.784 274.723 214.179 274.83 214.661 274.83ZM222.56 264.364V276H220.861V264.364H222.56ZM238.608 264.364V276H236.994L231.08 267.466H230.972V276H229.216V264.364H230.841L236.761 272.909H236.869V264.364H238.608ZM251.277 270.182C251.277 271.424 251.05 272.492 250.595 273.386C250.141 274.277 249.518 274.962 248.726 275.443C247.938 275.92 247.042 276.159 246.038 276.159C245.031 276.159 244.131 275.92 243.339 275.443C242.552 274.962 241.93 274.275 241.476 273.381C241.021 272.487 240.794 271.42 240.794 270.182C240.794 268.939 241.021 267.873 241.476 266.983C241.93 266.089 242.552 265.403 243.339 264.926C244.131 264.445 245.031 264.205 246.038 264.205C247.042 264.205 247.938 264.445 248.726 264.926C249.518 265.403 250.141 266.089 250.595 266.983C251.05 267.873 251.277 268.939 251.277 270.182ZM249.538 270.182C249.538 269.235 249.385 268.437 249.078 267.79C248.775 267.138 248.358 266.646 247.828 266.312C247.302 265.975 246.705 265.807 246.038 265.807C245.368 265.807 244.769 265.975 244.243 266.312C243.716 266.646 243.3 267.138 242.993 267.79C242.69 268.437 242.538 269.235 242.538 270.182C242.538 271.129 242.69 271.928 242.993 272.58C243.3 273.227 243.716 273.72 244.243 274.057C244.769 274.39 245.368 274.557 246.038 274.557C246.705 274.557 247.302 274.39 247.828 274.057C248.358 273.72 248.775 273.227 249.078 272.58C249.385 271.928 249.538 271.129 249.538 270.182ZM255.222 264.364V276H253.466V264.364H255.222Z" fill="black"/>
<circle cx="278" cy="270" r="4" fill="#FDB022"/>
<path d="M297.386 270.182C297.386 271.424 297.159 272.492 296.705 273.386C296.25 274.277 295.627 274.962 294.835 275.443C294.047 275.92 293.152 276.159 292.148 276.159C291.14 276.159 290.241 275.92 289.449 275.443C288.661 274.962 288.04 274.275 287.585 273.381C287.131 272.487 286.903 271.42 286.903 270.182C286.903 268.939 287.131 267.873 287.585 266.983C288.04 266.089 288.661 265.403 289.449 264.926C290.241 264.445 291.14 264.205 292.148 264.205C293.152 264.205 294.047 264.445 294.835 264.926C295.627 265.403 296.25 266.089 296.705 266.983C297.159 267.873 297.386 268.939 297.386 270.182ZM295.648 270.182C295.648 269.235 295.494 268.437 295.188 267.79C294.884 267.138 294.468 266.646 293.938 266.312C293.411 265.975 292.814 265.807 292.148 265.807C291.477 265.807 290.879 265.975 290.352 266.312C289.826 266.646 289.409 267.138 289.102 267.79C288.799 268.437 288.648 269.235 288.648 270.182C288.648 271.129 288.799 271.928 289.102 272.58C289.409 273.227 289.826 273.72 290.352 274.057C290.879 274.39 291.477 274.557 292.148 274.557C292.814 274.557 293.411 274.39 293.938 274.057C294.468 273.72 294.884 273.227 295.188 272.58C295.494 271.928 295.648 271.129 295.648 270.182ZM299.439 276V267.273H301.081V268.659H301.172C301.331 268.189 301.611 267.82 302.013 267.551C302.418 267.278 302.876 267.142 303.388 267.142C303.494 267.142 303.619 267.146 303.763 267.153C303.911 267.161 304.026 267.17 304.109 267.182V268.807C304.041 268.788 303.92 268.767 303.746 268.744C303.571 268.718 303.397 268.705 303.223 268.705C302.821 268.705 302.464 268.79 302.149 268.96C301.839 269.127 301.592 269.36 301.411 269.659C301.229 269.955 301.138 270.292 301.138 270.67V276H299.439ZM305.58 276V267.273H307.278V276H305.58ZM306.438 265.926C306.142 265.926 305.888 265.828 305.676 265.631C305.468 265.43 305.364 265.191 305.364 264.915C305.364 264.634 305.468 264.396 305.676 264.199C305.888 263.998 306.142 263.898 306.438 263.898C306.733 263.898 306.985 263.998 307.193 264.199C307.405 264.396 307.511 264.634 307.511 264.915C307.511 265.191 307.405 265.43 307.193 265.631C306.985 265.828 306.733 265.926 306.438 265.926ZM313.223 279.455C312.53 279.455 311.933 279.364 311.433 279.182C310.937 279 310.532 278.759 310.217 278.46C309.903 278.161 309.668 277.833 309.513 277.477L310.973 276.875C311.075 277.042 311.212 277.218 311.382 277.403C311.556 277.593 311.791 277.754 312.087 277.886C312.386 278.019 312.77 278.085 313.24 278.085C313.884 278.085 314.416 277.928 314.837 277.614C315.257 277.303 315.467 276.807 315.467 276.125V274.409H315.359C315.257 274.595 315.109 274.801 314.916 275.028C314.727 275.256 314.465 275.453 314.132 275.619C313.799 275.786 313.365 275.869 312.831 275.869C312.142 275.869 311.52 275.708 310.967 275.386C310.418 275.061 309.982 274.581 309.661 273.949C309.342 273.312 309.183 272.53 309.183 271.602C309.183 270.674 309.34 269.879 309.655 269.216C309.973 268.553 310.409 268.045 310.962 267.693C311.515 267.337 312.142 267.159 312.842 267.159C313.384 267.159 313.821 267.25 314.155 267.432C314.488 267.61 314.748 267.818 314.933 268.057C315.123 268.295 315.268 268.506 315.371 268.688H315.496V267.273H317.161V276.193C317.161 276.943 316.986 277.559 316.638 278.04C316.289 278.521 315.818 278.877 315.223 279.108C314.632 279.339 313.965 279.455 313.223 279.455ZM313.206 274.46C313.695 274.46 314.107 274.347 314.445 274.119C314.786 273.888 315.043 273.559 315.217 273.131C315.395 272.699 315.484 272.182 315.484 271.58C315.484 270.992 315.397 270.475 315.223 270.028C315.049 269.581 314.793 269.233 314.456 268.983C314.119 268.729 313.702 268.602 313.206 268.602C312.695 268.602 312.268 268.735 311.928 269C311.587 269.261 311.329 269.617 311.155 270.068C310.984 270.519 310.899 271.023 310.899 271.58C310.899 272.152 310.986 272.653 311.161 273.085C311.335 273.517 311.592 273.854 311.933 274.097C312.278 274.339 312.702 274.46 313.206 274.46ZM319.439 276V267.273H321.138V276H319.439ZM320.297 265.926C320.001 265.926 319.748 265.828 319.536 265.631C319.327 265.43 319.223 265.191 319.223 264.915C319.223 264.634 319.327 264.396 319.536 264.199C319.748 263.998 320.001 263.898 320.297 263.898C320.592 263.898 320.844 263.998 321.053 264.199C321.265 264.396 321.371 264.634 321.371 264.915C321.371 265.191 321.265 265.43 321.053 265.631C320.844 265.828 320.592 265.926 320.297 265.926ZM325.122 270.818V276H323.423V267.273H325.054V268.693H325.162C325.363 268.231 325.677 267.86 326.105 267.58C326.537 267.299 327.08 267.159 327.736 267.159C328.33 267.159 328.851 267.284 329.298 267.534C329.745 267.78 330.092 268.148 330.338 268.636C330.584 269.125 330.707 269.729 330.707 270.449V276H329.009V270.653C329.009 270.021 328.844 269.527 328.514 269.17C328.185 268.811 327.732 268.631 327.156 268.631C326.762 268.631 326.412 268.716 326.105 268.886C325.802 269.057 325.562 269.307 325.384 269.636C325.209 269.962 325.122 270.356 325.122 270.818ZM335.526 276.193C334.973 276.193 334.473 276.091 334.026 275.886C333.579 275.678 333.224 275.377 332.963 274.983C332.705 274.589 332.577 274.106 332.577 273.534C332.577 273.042 332.671 272.636 332.861 272.318C333.05 272 333.306 271.748 333.628 271.562C333.95 271.377 334.31 271.237 334.707 271.142C335.105 271.047 335.51 270.975 335.923 270.926C336.446 270.866 336.87 270.816 337.196 270.778C337.522 270.737 337.759 270.67 337.906 270.58C338.054 270.489 338.128 270.341 338.128 270.136V270.097C338.128 269.6 337.988 269.216 337.707 268.943C337.431 268.67 337.018 268.534 336.469 268.534C335.897 268.534 335.446 268.661 335.116 268.915C334.791 269.165 334.565 269.443 334.44 269.75L332.844 269.386C333.033 268.856 333.31 268.428 333.673 268.102C334.041 267.773 334.463 267.534 334.94 267.386C335.418 267.235 335.92 267.159 336.446 267.159C336.795 267.159 337.164 267.201 337.554 267.284C337.948 267.364 338.315 267.511 338.656 267.727C339.001 267.943 339.283 268.252 339.503 268.653C339.723 269.051 339.832 269.568 339.832 270.205V276H338.173V274.807H338.105C337.995 275.027 337.83 275.242 337.611 275.455C337.391 275.667 337.109 275.843 336.764 275.983C336.42 276.123 336.007 276.193 335.526 276.193ZM335.895 274.83C336.365 274.83 336.766 274.737 337.099 274.551C337.437 274.366 337.692 274.123 337.866 273.824C338.045 273.521 338.134 273.197 338.134 272.852V271.727C338.073 271.788 337.955 271.845 337.781 271.898C337.611 271.947 337.416 271.991 337.196 272.028C336.976 272.062 336.762 272.095 336.554 272.125C336.346 272.152 336.171 272.174 336.031 272.193C335.702 272.235 335.401 272.305 335.128 272.403C334.859 272.502 334.643 272.644 334.48 272.83C334.321 273.011 334.241 273.254 334.241 273.557C334.241 273.977 334.397 274.295 334.707 274.511C335.018 274.723 335.414 274.83 335.895 274.83ZM343.794 264.364V276H342.095V264.364H343.794ZM359.842 264.364V276H358.229L352.314 267.466H352.206V276H350.45V264.364H352.075L357.996 272.909H358.104V264.364H359.842ZM372.511 270.182C372.511 271.424 372.284 272.492 371.83 273.386C371.375 274.277 370.752 274.962 369.96 275.443C369.172 275.92 368.277 276.159 367.273 276.159C366.265 276.159 365.366 275.92 364.574 275.443C363.786 274.962 363.165 274.275 362.71 273.381C362.256 272.487 362.028 271.42 362.028 270.182C362.028 268.939 362.256 267.873 362.71 266.983C363.165 266.089 363.786 265.403 364.574 264.926C365.366 264.445 366.265 264.205 367.273 264.205C368.277 264.205 369.172 264.445 369.96 264.926C370.752 265.403 371.375 266.089 371.83 266.983C372.284 267.873 372.511 268.939 372.511 270.182ZM370.773 270.182C370.773 269.235 370.619 268.437 370.312 267.79C370.009 267.138 369.593 266.646 369.062 266.312C368.536 265.975 367.939 265.807 367.273 265.807C366.602 265.807 366.004 265.975 365.477 266.312C364.951 266.646 364.534 267.138 364.227 267.79C363.924 268.437 363.773 269.235 363.773 270.182C363.773 271.129 363.924 271.928 364.227 272.58C364.534 273.227 364.951 273.72 365.477 274.057C366.004 274.39 366.602 274.557 367.273 274.557C367.939 274.557 368.536 274.39 369.062 274.057C369.593 273.72 370.009 273.227 370.312 272.58C370.619 271.928 370.773 271.129 370.773 270.182ZM376.456 264.364V276H374.7V264.364H376.456Z" fill="black"/>
</g>
</g>
<defs>
<filter id="filter0_d_846_1628" x="364" y="67" width="180" height="144" filterUnits="userSpaceOnUse" color-interpolation-filters="sRGB">
<feFlood flood-opacity="0" result="BackgroundImageFix"/>
<feColorMatrix in="SourceAlpha" type="matrix" values="0 0 0 0 0 0 0 0 0 0 0 0 0 0 0 0 0 0 127 0" result="hardAlpha"/>
<feOffset/>
<feGaussianBlur stdDeviation="6"/>
<feComposite in2="hardAlpha" operator="out"/>
<feColorMatrix type="matrix" values="0 0 0 0 0 0 0 0 0 0 0 0 0 0 0 0 0 0 0.07 0"/>
<feBlend mode="normal" in2="BackgroundImageFix" result="effect1_dropShadow_846_1628"/>
<feBlend mode="normal" in="SourceGraphic" in2="effect1_dropShadow_846_1628" result="shape"/>
</filter>
<filter id="filter1_d_846_1628" x="0" y="229" width="572" height="273" filterUnits="userSpaceOnUse" color-interpolation-filters="sRGB">
<feFlood flood-opacity="0" result="BackgroundImageFix"/>
<feColorMatrix in="SourceAlpha" type="matrix" values="0 0 0 0 0 0 0 0 0 0 0 0 0 0 0 0 0 0 127 0" result="hardAlpha"/>
<feOffset dx="-5"/>
<feGaussianBlur stdDeviation="6"/>
<feComposite in2="hardAlpha" operator="out"/>
<feColorMatrix type="matrix" values="0 0 0 0 0 0 0 0 0 0 0 0 0 0 0 0 0 0 0.03 0"/>
<feBlend mode="normal" in2="BackgroundImageFix" result="effect1_dropShadow_846_1628"/>
<feBlend mode="normal" in="SourceGraphic" in2="effect1_dropShadow_846_1628" result="shape"/>
</filter>
<clipPath id="clip0_846_1628">
<rect x="17" y="241" width="548" height="249" rx="12" fill="white"/>
</clipPath>
</defs>
</svg>
